# 3ds Max Wavefront OBJ Exporter v0.97b - (c)2007 guruware
# File Created: 07.01.2015 01:55:10

#
# object LeftLeg
#

v  -2.0000 -26.6811 -0.5529
v  -2.0000 -26.6811 -4.5529
v  2.0000 -26.6811 -4.5529
v  2.0000 -26.6811 -0.5529
v  -2.0000 -11.6811 -0.5529
v  2.0000 -11.6811 -0.5529
v  2.0000 -11.6811 -4.5529
v  -2.0000 -11.6811 -4.5529
v  -1.9374 -30.1720 -0.5000
v  -1.9374 -30.1720 -4.5000
v  5.0626 -30.1720 -4.5000
v  5.0626 -30.1720 -0.5000
v  -1.9374 -27.6720 -0.5000
v  5.0626 -27.6720 -0.5000
v  5.0626 -27.6720 -4.5000
v  -1.9374 -27.6720 -4.5000
# 16 vertices

vn 0.0000 -1.0000 -0.0000
vn 0.0000 1.0000 -0.0000
vn 0.0000 0.0000 1.0000
vn 1.0000 0.0000 -0.0000
vn 0.0000 0.0000 -1.0000
vn -1.0000 0.0000 -0.0000
# 6 vertex normals

vt 0.8711 0.8796 0.0000
vt 0.8711 0.7219 0.0000
vt 0.9583 0.7219 0.0000
vt 0.9583 0.8796 0.0000
vt 0.8999 0.8189 0.0000
vt 0.9501 0.8189 0.0000
vt 0.9501 0.9141 0.0000
vt 0.8999 0.9141 0.0000
vt 0.1251 0.0938 0.0000
vt 0.1866 0.0938 0.0000
vt 0.1866 0.3748 0.0000
vt 0.1251 0.3748 0.0000
vt 0.0627 0.0925 0.0000
vt 0.1251 0.0925 0.0000
vt 0.1251 0.3747 0.0000
vt 0.0627 0.3747 0.0000
vt 0.0035 0.0938 0.0000
vt 0.0615 0.0938 0.0000
vt 0.0615 0.3748 0.0000
vt 0.0035 0.3748 0.0000
vt 0.1855 0.0936 0.0000
vt 0.2493 0.0936 0.0000
vt 0.2493 0.3740 0.0000
vt 0.1855 0.3740 0.0000
vt 0.9694 0.5118 0.0000
vt 0.9694 0.6847 0.0000
vt 0.8971 0.6847 0.0000
vt 0.8971 0.5118 0.0000
vt 0.0637 0.0917 0.0000
vt 0.0637 0.0007 0.0000
vt 0.1255 0.0007 0.0000
vt 0.1255 0.0917 0.0000
vt 0.9711 0.5586 0.0000
vt 0.9178 0.5586 0.0000
vt 0.9178 0.4130 0.0000
vt 0.9711 0.4130 0.0000
vt 0.9515 0.8618 0.0000
vt 0.8917 0.8618 0.0000
vt 0.8917 0.7530 0.0000
vt 0.9515 0.7530 0.0000
vt 0.9793 0.7095 0.0000
vt 0.8714 0.7095 0.0000
vt 0.8714 0.5738 0.0000
vt 0.9793 0.5738 0.0000
vt 0.9733 0.3806 0.0000
vt 0.9289 0.3806 0.0000
vt 0.9289 0.2557 0.0000
vt 0.9733 0.2557 0.0000
# 48 texture coords

g LeftLeg
f 1/1/1 2/2/1 3/3/1 
f 3/3/1 4/4/1 1/1/1 
f 5/5/2 6/6/2 7/7/2 
f 7/7/2 8/8/2 5/5/2 
f 1/9/3 4/10/3 6/11/3 
f 6/11/3 5/12/3 1/9/3 
f 4/13/4 3/14/4 7/15/4 
f 7/15/4 6/16/4 4/13/4 
f 3/17/5 2/18/5 8/19/5 
f 8/19/5 7/20/5 3/17/5 
f 2/21/6 1/22/6 5/23/6 
f 5/23/6 8/24/6 2/21/6 
f 9/25/1 10/26/1 11/27/1 
f 11/27/1 12/28/1 9/25/1 
f 13/29/2 14/30/2 15/31/2 
f 15/31/2 16/32/2 13/29/2 
f 9/33/3 12/34/3 14/35/3 
f 14/35/3 13/36/3 9/33/3 
f 12/37/4 11/38/4 15/39/4 
f 15/39/4 14/40/4 12/37/4 
f 11/41/5 10/42/5 16/43/5 
f 16/43/5 15/44/5 11/41/5 
f 10/45/6 9/46/6 13/47/6 
f 13/47/6 16/48/6 10/45/6 
# 24 faces

