# Blender v2.73 (sub 0) OBJ File: 'house.blend'
# www.blender.org
o Plane
v 13.227921 0.047729 -6.786815
v -13.153581 0.047729 -6.786815
v 13.227921 0.047729 5.910409
v -13.153581 0.047729 5.910409
v -10.299116 0.047729 -6.786815
v -10.299112 0.047729 5.910409
vt 0.712608 0.176189
vt 0.312194 0.176189
vt 0.312195 0.000347
vt 1.100953 0.178674
vt -0.105706 0.177769
vt -0.105547 0.001259
vt 0.712609 0.000347
vt 1.106799 0.002165
vn 0.000000 1.000000 0.000000
s off
f 5/1/1 2/2/1 4/3/1
f 1/4/1 5/5/1 6/6/1
f 6/7/1 5/1/1 4/3/1
f 3/8/1 1/4/1 6/6/1
o Cube.001
v 13.208432 0.048064 6.323270
v 13.208432 0.048064 5.901351
v -14.090600 0.048064 5.901351
v -14.090593 0.048064 6.323270
v 13.208439 4.406194 6.323269
v 13.208424 4.406194 5.901351
v -14.090603 4.406194 5.901351
v -14.090597 4.406194 6.323270
vt -0.399431 0.054600
vt -0.399431 0.183515
vt 1.383469 0.183515
vt -0.230584 0.030085
vt -0.230584 0.171539
vt 1.246225 0.171539
vt 0.475734 0.995566
vt 0.418117 0.995566
vt 0.418117 0.787019
vt -0.282609 0.770634
vt 1.319892 0.770634
vt 1.319892 0.459993
vt -0.100049 0.826631
vt -0.100049 0.999023
vt 1.196860 0.999023
vt -0.286805 1.002091
vt 1.317014 1.002091
vt 1.317014 0.783325
vt 1.383469 0.054600
vt 1.246225 0.030085
vt 0.475734 0.787019
vt -0.282609 0.459993
vt 1.196860 0.826631
vt -0.286805 0.783325
vn 0.000000 1.000000 -0.000000
vn 0.000000 -1.000000 0.000000
vn -1.000000 -0.000000 0.000000
vn 0.000000 0.000000 1.000000
vn 1.000000 0.000000 -0.000000
vn 0.000000 0.000000 -1.000000
s off
f 8/9/2 9/10/2 10/11/2
f 14/12/3 13/13/3 12/14/3
f 11/15/4 12/16/4 8/17/4
f 12/18/5 13/19/5 9/20/5
f 13/21/6 14/22/6 10/23/6
f 7/24/7 10/25/7 14/26/7
f 7/27/2 8/9/2 10/11/2
f 11/28/3 14/12/3 12/14/3
f 7/29/4 11/15/4 8/17/4
f 8/30/5 12/18/5 9/20/5
f 9/31/6 13/21/6 10/23/6
f 11/32/7 7/24/7 14/26/7
o Cube.002
v 12.384187 0.048064 6.303055
v 13.288084 0.048064 6.303055
v 13.288085 0.048064 0.336678
v 12.384187 0.048064 0.336678
v 12.384187 4.406194 6.303059
v 12.384187 1.944175 0.336678
v 12.384186 1.944175 -1.066460
v 12.384186 0.048064 -1.066460
v 12.384187 0.048064 -7.068790
v 12.384187 4.406194 -7.068792
v 13.288084 4.406194 6.303051
v 13.288084 4.406194 -7.068795
v 13.288084 0.048064 -7.068794
v 13.288084 0.048064 -1.066460
v 13.288084 1.944175 -1.066460
v 13.288085 1.944175 0.336678
vt 0.333333 0.666667
vt 0.333333 0.815396
vt 0.000000 0.815397
vt -0.000164 0.472610
vt 0.434319 0.651159
vt 0.545086 0.650947
vt -0.063532 0.790180
vt -0.016322 0.782601
vt 0.009620 0.789267
vt 1.038393 0.789267
vt 0.576599 0.906286
vt 1.003050 0.474058
vt 1.034752 0.784525
vt -0.014787 0.784525
vt 0.333333 0.850374
vt 0.333333 1.000000
vt 0.000000 1.000000
vt 0.656448 0.805574
vt 0.323115 0.805574
vt 0.323115 0.472241
vt 0.000000 0.666667
vt 1.003051 0.474058
vt 0.539070 0.787686
vt 1.029876 0.785655
vt 0.424336 0.788161
vt 0.996939 0.785745
vt 0.468648 0.906286
vt 0.468648 0.996407
vt 0.009620 0.996407
vt 1.038394 0.996407
vt 0.576600 0.996407
vt 0.000000 0.850374
vt 0.656447 0.472241
vt 0.000000 0.000000
vn 0.000000 1.000000 0.000000
vn 1.000000 0.000000 -0.000000
vn -0.000000 0.000000 -1.000000
vn -1.000000 0.000000 0.000000
vn 0.000000 -1.000000 0.000000
vn 0.000000 0.000000 1.000000
s off
f 16/33/8 17/34/8 18/35/8
f 19/36/9 20/37/9 21/38/9
f 15/39/10 19/36/10 25/40/10
f 25/41/11 26/42/11 29/43/11
f 24/44/12 26/45/12 25/46/12
f 28/47/8 27/48/8 23/49/8
f 27/50/13 26/51/13 24/52/13
f 15/53/8 16/33/8 18/35/8
f 21/38/9 24/54/9 19/36/9
f 21/38/9 22/55/9 23/56/9
f 15/39/9 18/57/9 20/37/9
f 21/38/9 23/56/9 24/54/9
f 19/36/9 15/39/9 20/37/9
f 16/58/10 15/39/10 25/40/10
f 30/59/11 17/60/11 16/61/11
f 27/62/11 28/63/11 29/43/11
f 30/59/11 16/61/11 25/41/11
f 26/42/11 27/62/11 29/43/11
f 29/43/11 30/59/11 25/41/11
f 19/36/12 24/44/12 25/46/12
f 22/64/8 28/47/8 23/49/8
f 23/65/13 27/50/13 24/52/13
f 20/66/13 18/66/13 17/66/13
f 20/66/8 30/66/8 29/66/8
f 29/66/10 28/66/10 22/66/10
f 30/66/13 20/66/13 17/66/13
f 21/66/8 20/66/8 29/66/8
f 21/66/10 29/66/10 22/66/10
o Cube.010_Cube.011
v 7.088898 0.048064 -1.675263
v 7.352690 0.048064 -1.675263
v 7.352689 0.048064 -6.785807
v 7.088898 0.048064 -6.785806
v 7.088898 4.406194 -1.675261
v 7.352690 4.406194 -1.675264
v 7.352689 4.406194 -6.785807
v 7.088898 4.406194 -6.785807
vt 0.776577 0.384964
vt 0.776577 0.428990
vt 0.820603 0.428990
vt 0.581689 0.393494
vt 0.581689 0.455204
vt 0.643399 0.455204
vt 0.261807 0.388125
vt 0.261807 0.443947
vt 0.317628 0.443947
vt 0.383512 0.268390
vt 0.383512 0.368951
vt 0.628069 0.368951
vt 0.511425 0.446280
vt 0.511425 0.406059
vt 0.471203 0.406059
vt 0.002449 0.263483
vt 0.333780 0.263483
vt 0.333780 0.178468
vt 0.820603 0.384964
vt 0.643399 0.393494
vt 0.317628 0.388125
vt 0.628069 0.268390
vt 0.471203 0.446280
vt 0.002449 0.178468
vn 0.000000 1.000000 0.000000
vn 0.000000 -1.000000 0.000000
vn -0.000000 -0.000000 -1.000000
vn -1.000000 0.000000 0.000000
vn 0.000000 0.000000 1.000000
vn 1.000000 -0.000000 -0.000000
s off
f 32/67/14 33/68/14 34/69/14
f 38/70/15 37/71/15 36/72/15
f 35/73/16 36/74/16 32/75/16
f 36/76/17 37/77/17 33/78/17
f 37/79/18 38/80/18 34/81/18
f 31/82/19 34/83/19 38/84/19
f 31/85/14 32/67/14 34/69/14
f 35/86/15 38/70/15 36/72/15
f 31/87/16 35/73/16 32/75/16
f 32/88/17 36/76/17 33/78/17
f 33/89/18 37/79/18 34/81/18
f 35/90/19 31/82/19 38/84/19
o Cube.014_Cube.015
v 3.421211 0.048064 -0.555256
v 3.421211 0.048064 -0.775083
v -0.924860 0.048064 -0.775082
v -0.924859 0.048064 -0.555256
v 3.421212 4.406194 -0.555256
v 3.421209 4.406194 -0.775083
v -0.924860 4.406194 -0.775082
v -0.924859 4.406194 -0.555256
vt 0.870387 0.442655
vt 0.870387 0.379492
vt 0.807224 0.379492
vt 0.274013 0.379801
vt 0.274013 0.438698
vt 0.332910 0.438698
vt 0.155606 0.372208
vt 0.155606 0.459990
vt 0.243389 0.459990
vt 0.443767 0.476399
vt 0.665669 0.476399
vt 0.665669 0.367635
vt 0.888105 0.376365
vt 0.808637 0.376365
vt 0.808637 0.455833
vt 0.354038 0.475350
vt 0.354038 0.779109
vt 0.657797 0.779109
vt 0.807224 0.442655
vt 0.332910 0.379801
vt 0.243389 0.372208
vt 0.443767 0.367635
vt 0.888105 0.455833
vt 0.657797 0.475350
vn 0.000000 1.000000 -0.000000
vn 0.000000 -1.000000 0.000000
vn -1.000000 -0.000000 0.000000
vn 0.000000 0.000000 1.000000
vn 1.000000 0.000000 -0.000000
vn -0.000000 -0.000000 -1.000000
s off
f 40/91/20 41/92/20 42/93/20
f 46/94/21 45/95/21 44/96/21
f 43/97/22 44/98/22 40/99/22
f 44/100/23 45/101/23 41/102/23
f 41/103/24 45/104/24 46/105/24
f 39/106/25 42/107/25 46/108/25
f 39/109/20 40/91/20 42/93/20
f 43/110/21 46/94/21 44/96/21
f 39/111/22 43/97/22 40/99/22
f 40/112/23 44/100/23 41/102/23
f 42/113/24 41/103/24 46/105/24
f 43/114/25 39/106/25 46/108/25
o Plane.001
v 14.539693 4.409965 -7.537993
v -14.956712 4.409965 -7.537993
v 14.539693 4.409965 6.658411
v -14.956712 4.409965 6.658411
v -11.765216 4.409965 -7.537993
v -11.765212 4.409965 6.658411
vt 0.545008 0.254310
vt 0.482568 0.254310
vt 0.482568 0.191870
vt 0.314507 0.262011
vt 0.314507 0.183319
vt 0.926784 0.183319
vt 0.545008 0.191870
vt 0.926784 0.262011
vn 0.000000 1.000000 0.000000
s off
f 51/115/26 48/116/26 50/117/26
f 51/118/26 52/119/26 49/120/26
f 52/121/26 51/115/26 50/117/26
f 47/122/26 51/118/26 49/120/26
o Cube.000_Cube.024
v -14.140200 0.048064 -7.146692
v -14.140200 0.048064 -6.724773
v 13.246309 0.048064 -6.724778
v 13.246304 0.048064 -7.146696
v -14.140205 4.406194 -7.146692
v -14.140190 4.406194 -6.724773
v 13.246313 4.406194 -6.724778
v 13.246307 4.406194 -7.146696
vt -0.408117 0.025647
vt -0.408117 0.154562
vt 1.374783 0.154562
vt -0.243613 0.027190
vt -0.243613 0.168643
vt 1.233196 0.168643
vt -0.247469 0.127380
vt -0.247469 0.056995
vt 1.352677 0.056995
vt -0.282609 0.770634
vt 1.319892 0.770634
vt 1.319892 0.459993
vt -0.100049 0.826631
vt -0.100049 0.999023
vt 1.196860 0.999023
vt -0.286805 1.002091
vt 1.317014 1.002091
vt 1.317014 0.783325
vt 1.374783 0.025647
vt 1.233196 0.027190
vt 1.352677 0.127380
vt -0.282609 0.459993
vt 1.196860 0.826631
vt -0.286805 0.783325
vn 0.000000 1.000000 0.000000
vn 0.000000 -1.000000 0.000000
vn 1.000000 -0.000000 -0.000000
vn -0.000000 0.000000 -1.000000
vn -1.000000 0.000000 0.000000
vn 0.000000 -0.000000 1.000000
s off
f 54/123/27 55/124/27 56/125/27
f 60/126/28 59/127/28 58/128/28
f 57/129/29 58/130/29 54/131/29
f 58/132/30 59/133/30 55/134/30
f 59/135/31 60/136/31 56/137/31
f 53/138/32 56/139/32 60/140/32
f 53/141/27 54/123/27 56/125/27
f 57/142/28 60/126/28 58/128/28
f 53/143/29 57/129/29 54/131/29
f 54/144/30 58/132/30 55/134/30
f 55/145/31 59/135/31 56/137/31
f 57/146/32 53/138/32 60/140/32
o Cube.003_Cube.025
v -13.242899 0.048064 -7.111449
v -14.146797 0.048064 -7.111449
v -14.146797 0.048064 6.260400
v -13.242899 0.048064 6.260396
v -13.242899 4.406194 -7.111453
v -14.146797 4.406194 -7.111445
v -14.146797 4.406194 6.260401
v -13.242899 4.406194 6.260398
vt 0.333333 0.666667
vt 0.333333 1.000000
vt 0.000000 1.000000
vt 1.003051 0.474058
vt 1.034752 0.784525
vt -0.014788 0.784525
vt -0.000164 0.472610
vt -0.016322 0.782601
vt 0.996939 0.785745
vt 0.009620 0.789267
vt 1.038394 0.789267
vt 1.038394 0.996407
vt 0.323115 0.805574
vt 0.323115 0.472241
vt 0.656448 0.472241
vt -0.063532 0.790180
vt 1.029877 0.785655
vt 0.000000 0.666667
vt 0.009620 0.996407
vt 0.656448 0.805574
vn 0.000000 1.000000 0.000000
vn 0.000000 -1.000000 0.000000
vn 0.000000 -0.000000 1.000000
vn 1.000000 -0.000000 0.000000
vn -0.000000 0.000000 -1.000000
vn -1.000000 0.000000 0.000000
s off
f 62/147/33 63/148/33 64/149/33
f 68/150/34 67/151/34 66/152/34
f 65/153/35 66/154/35 62/155/35
f 66/156/36 67/157/36 63/158/36
f 67/159/37 68/160/37 64/161/37
f 61/162/38 64/163/38 68/150/38
f 61/164/33 62/147/33 64/149/33
f 65/153/34 68/150/34 66/152/34
f 61/162/35 65/153/35 62/155/35
f 62/165/36 66/156/36 63/158/36
f 63/166/37 67/159/37 64/161/37
f 65/153/38 61/162/38 68/150/38
o Cube.011_Cube.027
v 7.088898 0.048064 5.876240
v 7.352690 0.048064 5.876240
v 7.352689 0.048064 0.765696
v 7.088898 0.048064 0.765697
v 7.088898 4.406194 5.876241
v 7.352690 4.406194 5.876238
v 7.352689 4.406194 0.765695
v 7.088898 4.406194 0.765696
vt 0.776577 0.384964
vt 0.776577 0.428990
vt 0.820603 0.428990
vt 0.581689 0.393494
vt 0.581689 0.455204
vt 0.643399 0.455204
vt 0.261807 0.388125
vt 0.261807 0.443947
vt 0.317628 0.443947
vt 0.383512 0.268390
vt 0.383512 0.368951
vt 0.628069 0.368951
vt 0.511425 0.446280
vt 0.511425 0.406059
vt 0.471203 0.406059
vt 0.002449 0.263483
vt 0.333780 0.263483
vt 0.333780 0.178468
vt 0.820603 0.384964
vt 0.643399 0.393494
vt 0.317628 0.388125
vt 0.628069 0.268390
vt 0.471203 0.446280
vt 0.002449 0.178468
vn 0.000000 1.000000 0.000000
vn 0.000000 -1.000000 0.000000
vn -0.000000 -0.000000 -1.000000
vn -1.000000 0.000000 0.000000
vn 0.000000 0.000000 1.000000
vn 1.000000 -0.000000 -0.000000
s off
f 70/167/39 71/168/39 72/169/39
f 76/170/40 75/171/40 74/172/40
f 73/173/41 74/174/41 70/175/41
f 74/176/42 75/177/42 71/178/42
f 75/179/43 76/180/43 72/181/43
f 69/182/44 72/183/44 76/184/44
f 69/185/39 70/167/39 72/169/39
f 73/186/40 76/170/40 74/172/40
f 69/187/41 73/173/41 70/175/41
f 70/188/42 74/176/42 71/178/42
f 71/189/43 75/179/43 72/181/43
f 73/190/44 69/182/44 76/184/44
o Cube.013_Cube.028
v 3.227438 0.048064 6.049191
v 3.491230 0.048064 6.049191
v 3.491229 0.048064 -0.579562
v 3.227438 0.048064 -0.579560
v 3.227438 4.406194 6.049193
v 3.491230 4.406194 6.049190
v 3.491229 4.406194 -0.579563
v 3.227438 4.406194 -0.579561
vt 0.776577 0.384964
vt 0.776577 0.428990
vt 0.820603 0.428990
vt 0.581689 0.393494
vt 0.581689 0.455204
vt 0.643399 0.455204
vt 0.261807 0.388125
vt 0.261807 0.443947
vt 0.317628 0.443947
vt 0.383512 0.268390
vt 0.383512 0.368951
vt 0.628069 0.368951
vt 0.511425 0.446280
vt 0.511425 0.406059
vt 0.471203 0.406059
vt 0.002449 0.263483
vt 0.333780 0.263483
vt 0.333780 0.178468
vt 0.820603 0.384964
vt 0.643399 0.393494
vt 0.317628 0.388125
vt 0.628069 0.268390
vt 0.471203 0.446280
vt 0.002449 0.178468
vn 0.000000 1.000000 0.000000
vn 0.000000 -1.000000 -0.000000
vn -0.000000 -0.000000 -1.000000
vn -1.000000 0.000000 0.000000
vn 0.000000 0.000000 1.000000
vn 1.000000 -0.000000 -0.000000
s off
f 78/191/45 79/192/45 80/193/45
f 84/194/46 83/195/46 82/196/46
f 81/197/47 82/198/47 78/199/47
f 82/200/48 83/201/48 79/202/48
f 83/203/49 84/204/49 80/205/49
f 77/206/50 80/207/50 84/208/50
f 77/209/45 78/191/45 80/193/45
f 81/210/46 84/194/46 82/196/46
f 77/211/47 81/197/47 78/199/47
f 78/212/48 82/200/48 79/202/48
f 79/213/49 83/203/49 80/205/49
f 81/214/50 77/206/50 84/208/50
o Cube.008_Cube.029
v -0.960078 0.048064 6.049191
v -0.696287 0.048064 6.049191
v -0.696288 0.048064 -0.579562
v -0.960079 0.048064 -0.579560
v -0.960078 4.406194 6.049193
v -0.696287 4.406194 6.049190
v -0.696288 4.406194 -0.579563
v -0.960079 4.406194 -0.579561
vt 0.776577 0.384964
vt 0.776577 0.428990
vt 0.820603 0.428990
vt 0.581689 0.393494
vt 0.581689 0.455204
vt 0.643399 0.455204
vt 0.261807 0.388125
vt 0.261807 0.443947
vt 0.317628 0.443947
vt 0.383512 0.268390
vt 0.383512 0.368951
vt 0.628069 0.368951
vt 0.511425 0.446280
vt 0.511425 0.406059
vt 0.471203 0.406059
vt 0.002449 0.263483
vt 0.333780 0.263483
vt 0.333780 0.178468
vt 0.820603 0.384964
vt 0.643399 0.393494
vt 0.317628 0.388125
vt 0.628069 0.268390
vt 0.471203 0.446280
vt 0.002449 0.178468
vn 0.000000 1.000000 0.000000
vn 0.000000 -1.000000 -0.000000
vn -0.000000 -0.000000 -1.000000
vn -1.000000 0.000000 0.000000
vn 0.000000 0.000000 1.000000
vn 1.000000 0.000000 -0.000000
s off
f 86/215/51 87/216/51 88/217/51
f 92/218/52 91/219/52 90/220/52
f 89/221/53 90/222/53 86/223/53
f 90/224/54 91/225/54 87/226/54
f 91/227/55 92/228/55 88/229/55
f 85/230/56 88/231/56 92/232/56
f 85/233/51 86/215/51 88/217/51
f 89/234/52 92/218/52 90/220/52
f 85/235/53 89/221/53 86/223/53
f 86/236/54 90/224/54 87/226/54
f 87/237/55 91/227/55 88/229/55
f 89/238/56 85/230/56 92/232/56
o Cube.009_Cube.030
v -8.012737 0.048064 -1.589077
v -7.748946 0.048064 -1.589077
v -7.748947 0.048064 -6.733337
v -8.012738 0.048064 -6.733335
v -8.012737 4.406194 -1.589075
v -7.748946 4.406194 -1.589079
v -7.748947 4.406194 -6.733337
v -8.012738 4.406194 -6.733336
vt 0.776577 0.384964
vt 0.776577 0.428990
vt 0.820603 0.428990
vt 0.581689 0.393494
vt 0.581689 0.455204
vt 0.643399 0.455204
vt 0.261807 0.388125
vt 0.261807 0.443947
vt 0.317628 0.443947
vt 0.383512 0.268390
vt 0.383512 0.368951
vt 0.628069 0.368951
vt 0.511425 0.446280
vt 0.511425 0.406059
vt 0.471203 0.406059
vt 0.002449 0.263483
vt 0.333780 0.263483
vt 0.333780 0.178468
vt 0.820603 0.384964
vt 0.643399 0.393494
vt 0.317628 0.388125
vt 0.628069 0.268390
vt 0.471203 0.446280
vt 0.002449 0.178468
vn 0.000000 1.000000 0.000000
vn 0.000000 -1.000000 0.000000
vn -0.000000 -0.000000 -1.000000
vn -1.000000 -0.000000 0.000000
vn 0.000000 0.000000 1.000000
vn 1.000000 -0.000000 -0.000000
s off
f 94/239/57 95/240/57 96/241/57
f 100/242/58 99/243/58 98/244/58
f 97/245/59 98/246/59 94/247/59
f 98/248/60 99/249/60 95/250/60
f 99/251/61 100/252/61 96/253/61
f 93/254/62 96/255/62 100/256/62
f 93/257/57 94/239/57 96/241/57
f 97/258/58 100/242/58 98/244/58
f 93/259/59 97/245/59 94/247/59
f 94/260/60 98/248/60 95/250/60
f 95/261/61 99/251/61 96/253/61
f 97/262/62 93/254/62 100/256/62
o Cube.006_Cube.031
v -0.977709 0.048064 -3.719571
v -0.713917 0.048064 -3.719571
v -0.713918 0.048064 -6.678183
v -0.977709 0.048064 -6.678183
v -0.977709 4.406194 -3.719570
v -0.713917 4.406194 -3.719572
v -0.713918 4.406194 -6.678184
v -0.977709 4.406194 -6.678183
vt 0.776577 0.384964
vt 0.776577 0.428990
vt 0.820603 0.428990
vt 0.581689 0.393494
vt 0.581689 0.455204
vt 0.643399 0.455204
vt 0.261807 0.388125
vt 0.261807 0.443947
vt 0.317628 0.443947
vt 0.383512 0.268390
vt 0.383512 0.368951
vt 0.628069 0.368951
vt 0.511425 0.446280
vt 0.511425 0.406059
vt 0.471203 0.406059
vt 0.002449 0.263483
vt 0.333780 0.263483
vt 0.333780 0.178468
vt 0.820603 0.384964
vt 0.643399 0.393494
vt 0.317628 0.388125
vt 0.628069 0.268390
vt 0.471203 0.446280
vt 0.002449 0.178468
vn 0.000000 1.000000 -0.000000
vn 0.000000 -1.000000 -0.000000
vn -0.000000 -0.000000 -1.000000
vn -1.000000 0.000000 0.000000
vn 0.000000 0.000000 1.000000
vn 1.000000 0.000000 -0.000000
s off
f 102/263/63 103/264/63 104/265/63
f 108/266/64 107/267/64 106/268/64
f 105/269/65 106/270/65 102/271/65
f 106/272/66 107/273/66 103/274/66
f 107/275/67 108/276/67 104/277/67
f 101/278/68 104/279/68 108/280/68
f 101/281/63 102/263/63 104/265/63
f 105/282/64 108/266/64 106/268/64
f 101/283/65 105/269/65 102/271/65
f 102/284/66 106/272/66 103/274/66
f 103/285/67 107/275/67 104/277/67
f 105/286/68 101/278/68 108/280/68
o Cube.007_Cube.032
v 3.377133 0.048064 -3.684787
v 3.377133 0.048064 -3.904613
v -0.968938 0.048064 -3.904613
v -0.968937 0.048064 -3.684787
v 3.377134 4.406194 -3.684787
v 3.377131 4.406194 -3.904613
v -0.968938 4.406194 -3.904613
v -0.968937 4.406194 -3.684787
vt 0.870387 0.442655
vt 0.870387 0.379492
vt 0.807224 0.379492
vt 0.274013 0.379801
vt 0.274013 0.438698
vt 0.332910 0.438698
vt 0.155606 0.372208
vt 0.155606 0.459990
vt 0.243389 0.459990
vt 0.443767 0.476399
vt 0.665669 0.476399
vt 0.665669 0.367635
vt 0.888105 0.376365
vt 0.808637 0.376365
vt 0.808637 0.455833
vt 0.354038 0.475350
vt 0.354038 0.779109
vt 0.657797 0.779109
vt 0.807224 0.442655
vt 0.332910 0.379801
vt 0.243389 0.372208
vt 0.443767 0.367635
vt 0.888105 0.455833
vt 0.657797 0.475350
vn 0.000000 1.000000 -0.000000
vn 0.000000 -1.000000 0.000000
vn -1.000000 -0.000000 0.000000
vn 0.000000 0.000000 1.000000
vn 1.000000 0.000000 -0.000000
vn 0.000000 0.000000 -1.000000
s off
f 110/287/69 111/288/69 112/289/69
f 116/290/70 115/291/70 114/292/70
f 113/293/71 114/294/71 110/295/71
f 114/296/72 115/297/72 111/298/72
f 111/299/73 115/300/73 116/301/73
f 109/302/74 112/303/74 116/304/74
f 109/305/69 110/287/69 112/289/69
f 113/306/70 116/290/70 114/292/70
f 109/307/71 113/293/71 110/295/71
f 110/308/72 114/296/72 111/298/72
f 112/309/73 111/299/73 116/301/73
f 113/310/74 109/302/74 116/304/74
o Cube.012_Cube.033
v 11.710819 0.048064 0.996621
v 11.710819 0.048064 0.776795
v 7.364749 0.048064 0.776795
v 7.364750 0.048064 0.996621
v 11.710821 4.406194 0.996621
v 11.710818 4.406194 0.776795
v 7.364749 4.406194 0.776795
v 7.364750 4.406194 0.996621
vt 0.870387 0.442655
vt 0.870387 0.379492
vt 0.807224 0.379492
vt 0.274013 0.379801
vt 0.274013 0.438698
vt 0.332910 0.438698
vt 0.155606 0.372208
vt 0.155606 0.459990
vt 0.243389 0.459990
vt 0.443767 0.476399
vt 0.665669 0.476399
vt 0.665669 0.367635
vt 0.808637 0.376365
vt 0.808637 0.455833
vt 0.888105 0.455833
vt 0.354038 0.475350
vt 0.354038 0.779109
vt 0.657797 0.779109
vt 0.807224 0.442655
vt 0.332910 0.379801
vt 0.243389 0.372208
vt 0.443767 0.367635
vt 0.888105 0.376365
vt 0.657797 0.475350
vn 0.000000 1.000000 -0.000000
vn 0.000000 -1.000000 0.000000
vn -1.000000 -0.000000 0.000000
vn 0.000000 0.000000 1.000000
vn 1.000000 0.000000 -0.000000
vn -0.000000 0.000000 -1.000000
s off
f 118/311/75 119/312/75 120/313/75
f 124/314/76 123/315/76 122/316/76
f 121/317/77 122/318/77 118/319/77
f 122/320/78 123/321/78 119/322/78
f 123/323/79 124/324/79 120/325/79
f 117/326/80 120/327/80 124/328/80
f 117/329/75 118/311/75 120/313/75
f 121/330/76 124/314/76 122/316/76
f 117/331/77 121/317/77 118/319/77
f 118/332/78 122/320/78 119/322/78
f 119/333/79 123/323/79 120/325/79
f 121/334/80 117/326/80 124/328/80
o Cube.016_Cube.034
v -8.844896 0.048064 0.996621
v -8.844896 0.048064 0.776795
v -13.190968 0.048064 0.776795
v -13.190967 0.048064 0.996621
v -8.844896 4.406194 0.996621
v -8.844898 4.406194 0.776795
v -13.190968 4.406194 0.776795
v -13.190967 4.406194 0.996621
vt 0.870387 0.442655
vt 0.870387 0.379492
vt 0.807224 0.379492
vt 0.274013 0.379801
vt 0.274013 0.438698
vt 0.332910 0.438698
vt 0.243389 0.372208
vt 0.155606 0.372208
vt 0.155606 0.459990
vt 0.443767 0.476399
vt 0.665669 0.476399
vt 0.665669 0.367635
vt 0.808637 0.376365
vt 0.808637 0.455833
vt 0.888105 0.455833
vt 0.354038 0.475350
vt 0.354038 0.779109
vt 0.657797 0.779109
vt 0.807224 0.442655
vt 0.332910 0.379801
vt 0.243389 0.459990
vt 0.443767 0.367635
vt 0.888105 0.376365
vt 0.657797 0.475350
vn 0.000000 1.000000 -0.000000
vn 0.000000 -1.000000 0.000000
vn -1.000000 0.000000 0.000000
vn 0.000000 0.000000 1.000000
vn 1.000000 0.000000 -0.000000
vn -0.000000 0.000000 -1.000000
s off
f 126/335/81 127/336/81 128/337/81
f 132/338/82 131/339/82 130/340/82
f 125/341/83 129/342/83 130/343/83
f 130/344/84 131/345/84 127/346/84
f 131/347/85 132/348/85 128/349/85
f 125/350/86 128/351/86 132/352/86
f 125/353/81 126/335/81 128/337/81
f 129/354/82 132/338/82 130/340/82
f 126/355/83 125/341/83 130/343/83
f 126/356/84 130/344/84 127/346/84
f 127/357/85 131/347/85 128/349/85
f 129/358/86 125/350/86 132/352/86
