# Blender v2.73 (sub 0) OBJ File: ''
# www.blender.org
o Cube
v -3.312533 -0.255698 6.858892
v -3.312533 -0.255698 -6.858893
v 3.312533 -0.255698 -6.858891
v 3.312532 -0.255698 6.858895
v -3.312535 6.160122 6.858889
v -3.312531 6.160122 -6.858897
v 3.312534 6.160122 -6.858891
v 3.312533 6.160122 6.858893
vt 0.214304 0.003069
vt 0.214304 -0.996931
vt -0.785696 -0.996931
vt 0.994407 0.359949
vt 0.520947 0.359949
vt 0.520947 0.010041
vt 1.000062 0.995382
vt 0.000062 0.995382
vt 0.000063 0.366242
vt 0.523224 0.349493
vt 0.008026 0.349493
vt 0.008026 0.015219
vt 0.996595 0.346522
vt 0.996594 1.021489
vt 0.011281 0.999354
vt 0.518420 0.006064
vt 0.006581 0.006064
vt 0.006581 0.358648
vt -0.785695 0.003069
vt 0.994407 0.010041
vt 1.000063 0.366242
vt 0.523224 0.015219
vt 0.011280 0.324386
vt 0.518420 0.358648
vn 0.000000 -1.000000 0.000000
vn 0.000000 1.000000 -0.000000
vn -1.000000 0.000000 -0.000000
vn 0.000000 0.000000 -1.000000
vn 1.000000 -0.000000 0.000000
vn -0.000000 0.000000 1.000000
s off
f 1/1/1 2/2/1 3/3/1
f 5/4/2 8/5/2 7/6/2
f 5/7/3 6/8/3 2/9/3
f 6/10/4 7/11/4 3/12/4
f 3/13/5 7/14/5 8/15/5
f 1/16/6 4/17/6 8/18/6
f 4/19/1 1/1/1 3/3/1
f 6/20/2 5/4/2 7/6/2
f 1/21/3 5/7/3 2/9/3
f 2/22/4 6/10/4 3/12/4
f 4/23/5 3/13/5 8/15/5
f 5/24/6 1/16/6 8/18/6
