# 3ds Max Wavefront OBJ Exporter v0.97b - (c)2007 guruware
# File Created: 26.03.2015 17:09:50
o Box001
v  -19.2641 0.0000 10.5605
v  -19.2641 0.0000 -9.4395
v  0.7359 0.0000 -9.4395
v  0.7359 0.0000 10.5605
v  -19.6485 60.9333 10.9449
v  1.1203 60.9333 10.9449
v  1.1203 60.9333 -9.8239
v  -19.6485 60.9333 -9.8239
v  0.7359 5.0000 10.5605
v  -19.2641 5.0000 10.5605
v  0.7359 5.0000 -9.4395
v  -19.2641 5.0000 -9.4395
v  -2.5317 6.3455 7.2929
v  -15.9965 6.3455 7.2929
v  -2.5317 6.3455 -6.1720
v  -15.9965 6.3455 -6.1720
v  -2.5317 54.3981 7.2929
v  -15.9965 54.3981 7.2929
v  -2.5317 54.3981 -6.1720
v  -15.9965 54.3981 -6.1720
v  1.1203 57.4735 10.9449
v  -19.6485 57.4735 10.9449
v  1.1203 57.4735 -9.8239
v  -19.6485 57.4735 -9.8239
vt 1.0000 0.0000
vt 1.0000 1.0000
vt 0.0000 1.0000
vt 0.0000 0.0000
vn 0.0000 -1.0000 -0.0000
vn 0.0000 1.0000 -0.0000
vn 0.0000 0.0000 1.0000
vn 1.0000 0.0000 -0.0000
vn 0.0000 0.0000 -1.0000
vn -1.0000 0.0000 -0.0000
vn 0.0000 0.9247 0.3807
vn 0.3807 0.9247 -0.0000
vn 0.0000 0.9247 -0.3807
vn -0.3807 0.9247 -0.0000
vn 0.0000 -0.7649 0.6441
vn 0.6441 -0.7649 -0.0000
vn 0.0000 -0.7649 -0.6441
vn -0.6441 -0.7649 -0.0000
s off
f 1/1/1 2/2/1 3/3/1 
f 3/3/1 4/4/1 1/1/1 
f 5/4/2 6/1/2 7/2/2 
f 7/2/2 8/3/2 5/4/2 
f 1/4/3 4/1/3 9/2/3 
f 9/2/3 10/3/3 1/4/3 
f 4/4/4 3/1/4 11/2/4 
f 11/2/4 9/3/4 4/4/4 
f 3/4/5 2/1/5 12/2/5 
f 12/2/5 11/3/5 3/4/5 
f 2/4/6 1/1/6 10/2/6 
f 10/2/6 12/3/6 2/4/6 
f 10/4/7 9/1/7 13/1/7 
f 13/1/7 14/4/7 10/4/7 
f 9/1/8 11/2/8 15/2/8 
f 15/2/8 13/1/8 9/1/8 
f 11/2/9 12/3/9 16/3/9 
f 16/3/9 15/2/9 11/2/9 
f 12/3/10 10/4/10 14/4/10 
f 14/4/10 16/3/10 12/3/10 
f 14/4/3 13/1/3 17/1/3 
f 17/1/3 18/4/3 14/4/3 
f 13/1/4 15/2/4 19/2/4 
f 19/2/4 17/1/4 13/1/4 
f 15/2/5 16/3/5 20/3/5 
f 20/3/5 19/2/5 15/2/5 
f 16/3/6 14/4/6 18/4/6 
f 18/4/6 20/3/6 16/3/6 
f 18/4/11 17/1/11 21/1/11 
f 21/1/11 22/4/11 18/4/11 
f 17/1/12 19/2/12 23/2/12 
f 23/2/12 21/1/12 17/1/12 
f 19/2/13 20/3/13 24/3/13 
f 24/3/13 23/2/13 19/2/13 
f 20/3/14 18/4/14 22/4/14 
f 22/4/14 24/3/14 20/3/14 
f 22/4/3 21/1/3 6/1/3 
f 6/1/3 5/4/3 22/4/3 
f 21/1/4 23/2/4 7/2/4 
f 7/2/4 6/1/4 21/1/4 
f 23/2/5 24/3/5 8/3/5 
f 8/3/5 7/2/5 23/2/5 
f 24/3/6 22/4/6 5/4/6 
f 5/4/6 8/3/6 24/3/6 
