# 3ds Max Wavefront OBJ Exporter v0.97b - (c)2007 guruware
# File Created: 26.03.2015 22:15:47

#
# object Box001
#

v  -3.6168 0.0000 6.9314
v  -5.0371 -1.4202 3.4657
v  -1.8084 -1.2145 3.4657
v  -1.8084 -0.0978 7.0292
v  0.0000 -0.6004 3.4657
v  0.0000 -0.5529 7.4843
v  1.8084 -1.6127 3.4657
v  1.8084 -0.6139 7.5453
v  4.4248 -0.8080 3.4657
v  3.6168 0.0000 6.9314
v  -5.5735 -1.9566 -0.0000
v  -1.8084 -1.1496 -0.0000
v  0.0000 -1.0143 -0.0000
v  1.8084 -2.5139 -0.0000
v  5.5886 -1.9717 -0.0000
v  -4.9287 -1.3118 -3.4657
v  -1.8084 -1.6127 -3.4657
v  0.0000 -0.7675 -3.4657
v  1.8084 -1.1526 -3.4657
v  4.4141 -0.7972 -3.4657
v  -4.4914 -0.4373 -7.3687
v  -1.8084 -0.5041 -7.4356
v  0.0000 -0.5819 -7.5133
v  1.8084 -1.1404 -8.0718
v  4.2826 -1.3315 -8.2629
v  -3.5566 3.3194 6.6112
v  -1.8084 3.1166 6.5138
v  -1.8084 3.3490 3.4657
v  -4.1733 3.3347 3.4657
v  0.0391 3.0536 6.2549
v  0.0843 3.5396 3.5581
v  1.8827 3.3101 6.3285
v  2.0947 3.6191 3.3694
v  3.5462 3.3510 5.8749
v  4.1196 3.2887 3.2766
v  -1.8084 3.3736 -0.0000
v  -4.5048 3.7256 -0.0000
v  0.0000 3.3552 -0.0000
v  2.1266 3.6900 -0.0938
v  4.3232 3.4214 -0.0205
v  -1.8186 3.3673 -3.4737
v  -4.1116 3.3333 -3.7969
v  0.0000 3.3511 -3.4678
v  2.1941 3.6064 -3.6613
v  4.6683 3.3071 -3.4677
v  -1.9756 3.6682 -7.2765
v  -3.5674 3.3351 -6.6316
v  -0.0418 3.6257 -7.4436
v  1.9617 3.3584 -7.0428
v  3.9500 3.2975 -6.4699
v  -1.8084 1.1163 8.2491
v  -3.6168 1.1163 6.9314
v  0.0000 1.1163 8.5441
v  1.8084 1.1163 8.5441
v  3.7722 1.1163 7.0867
v  -1.8084 2.2327 8.5441
v  -3.6358 2.2327 6.9503
v  0.0000 2.2327 8.5441
v  1.8093 2.2341 8.5403
v  4.1077 2.2327 7.4223
v  6.4101 1.1163 3.4657
v  5.6299 1.1163 -0.0000
v  7.4267 1.1163 -3.4657
v  5.8080 1.1163 -9.1226
v  6.3980 2.2327 3.4657
v  5.8553 2.2327 -0.0000
v  8.2971 2.2327 -3.4657
v  5.0175 2.2327 -8.3320
v  1.8084 1.1163 -9.1885
v  0.0000 1.1163 -10.2323
v  -1.8084 1.1163 -8.4704
v  -4.9318 1.1163 -8.2464
v  1.8084 2.2327 -10.1569
v  0.0000 2.2327 -10.1970
v  -1.8084 2.2327 -8.7365
v  -4.7572 2.2327 -8.0718
v  -6.8717 1.1163 -3.4657
v  -5.4129 1.1163 -0.0000
v  -5.2018 1.1163 3.4657
v  -5.8480 2.2327 -3.4657
v  -6.3305 2.2327 -0.0000
v  -6.4753 2.2327 3.4657
# 82 vertices

vn -0.0147 -0.9460 0.3239
vn 0.1092 -0.9777 0.1795
vn 0.1607 -0.9719 0.1721
vn -0.0856 -0.9784 0.1879
vn -0.1492 -0.9791 0.1384
vn -0.2075 -0.9728 0.1027
vn -0.0999 -0.9683 0.2291
vn 0.1428 -0.9561 0.2558
vn 0.2920 -0.8994 0.3253
vn 0.3954 -0.8698 0.2950
vn 0.1403 -0.9889 0.0484
vn 0.1539 -0.9873 0.0386
vn -0.2539 -0.9659 -0.0505
vn -0.2390 -0.9685 -0.0693
vn 0.1734 -0.9845 -0.0261
vn -0.0827 -0.9713 -0.2231
vn 0.1764 -0.9816 -0.0726
vn 0.0798 -0.9967 -0.0162
vn -0.1000 -0.9879 -0.1182
vn 0.1353 -0.9790 -0.1527
vn -0.0298 -0.9747 -0.2217
vn -0.0547 -0.9653 -0.2552
vn -0.1313 -0.9838 -0.1219
vn -0.1661 -0.9860 -0.0154
vn -0.0067 -0.9994 0.0338
vn 0.0681 0.9966 0.0472
vn 0.0607 0.9926 0.1053
vn -0.0351 0.9992 0.0190
vn 0.0250 0.9993 0.0278
vn -0.0155 0.9881 0.1532
vn -0.0610 0.9961 0.0634
vn -0.0549 0.9961 0.0685
vn 0.0546 0.9954 0.0782
vn -0.0331 0.9990 -0.0312
vn 0.1368 0.9889 0.0581
vn 0.0569 0.9982 0.0170
vn 0.1050 0.9940 0.0295
vn -0.0781 0.9968 -0.0192
vn -0.0089 0.9999 -0.0130
vn 0.1284 0.9917 0.0044
vn 0.0138 0.9997 0.0181
vn -0.0369 0.9990 -0.0264
vn -0.0354 0.9993 0.0118
vn -0.0052 0.9993 -0.0372
vn 0.1221 0.9922 -0.0261
vn -0.0390 0.9979 0.0516
vn -0.2208 0.9744 -0.0418
vn 0.0685 0.9951 0.0714
vn 0.0477 0.9987 -0.0150
vn 0.0794 0.9950 -0.0598
vn -0.4218 -0.3186 0.8489
vn -0.1536 -0.6600 0.7354
vn -0.2789 -0.4124 0.8672
vn -0.6138 -0.0381 0.7885
vn -0.1743 -0.5180 0.8375
vn -0.1013 -0.2963 0.9497
vn 0.2275 -0.4497 0.8637
vn 0.2505 -0.2701 0.9297
vn 0.3701 -0.1784 0.9117
vn 0.5092 -0.3489 0.7868
vn -0.2700 0.4066 0.8728
vn -0.4181 0.3727 0.8284
vn -0.0496 0.5429 0.8383
vn 0.1805 0.4897 0.8530
vn 0.4684 0.3814 0.7970
vn -0.0613 0.8520 0.5199
vn 0.0869 0.2910 0.9528
vn -0.0525 0.9344 0.3525
vn 0.0154 0.9109 0.4122
vn 0.1766 0.8615 0.4761
vn 0.7791 -0.3632 0.5110
vn 0.7951 -0.5762 0.1894
vn 0.9225 -0.3438 0.1754
vn 0.8048 -0.2612 0.5330
vn 0.9482 -0.2518 0.1935
vn 0.9479 -0.2053 0.2437
vn 0.5777 -0.7751 -0.2559
vn 0.7768 -0.6257 -0.0711
vn 0.8536 -0.5198 0.0345
vn 0.9843 -0.0798 -0.1575
vn 0.8599 0.4677 0.2043
vn 0.8877 0.1196 0.4446
vn 0.8752 0.4674 0.1242
vn 0.9695 0.2451 -0.0084
vn 0.6534 0.7053 -0.2750
vn 0.4500 0.8815 0.1430
vn 0.7781 0.6081 0.1571
vn 0.5750 0.8182 -0.0002
vn 0.3367 0.9409 0.0357
vn 0.3652 0.9077 -0.2067
vn -0.0290 -0.3791 -0.9249
vn -0.1035 -0.5890 -0.8015
vn 0.1730 -0.4850 -0.8573
vn 0.1977 0.0604 -0.9784
vn -0.3353 -0.7333 -0.5914
vn -0.1303 -0.3514 -0.9271
vn -0.0555 -0.5311 -0.8455
vn -0.3297 -0.4412 -0.8346
vn -0.0340 -0.4989 -0.8660
vn -0.0618 -0.1781 -0.9821
vn 0.1425 0.2481 -0.9582
vn 0.2764 0.8105 -0.5164
vn -0.1559 0.4054 -0.9007
vn -0.4926 0.2867 -0.8217
vn -0.1225 0.4320 -0.8935
vn 0.1832 0.9145 -0.3608
vn 0.1497 0.8929 -0.4247
vn 0.0579 0.9073 -0.4165
vn -0.3198 0.7191 -0.6170
vn -0.2310 0.7691 -0.5959
vn -0.8183 -0.4872 -0.3051
vn -0.8748 -0.4823 -0.0466
vn -0.9970 -0.0213 -0.0741
vn -0.9508 -0.0395 -0.3072
vn -0.9990 0.0283 -0.0345
vn -0.9177 -0.3850 0.0979
vn -0.9618 -0.0577 0.2676
vn -0.8679 -0.3959 0.3000
vn -0.9253 0.0000 0.3792
vn -0.9143 -0.0224 0.4045
vn -0.6639 0.7292 -0.1658
vn -0.8701 0.4506 -0.1999
vn -0.9782 0.1925 0.0777
vn -0.9625 0.1106 0.2479
vn -0.8408 0.0198 0.5410
vn -0.5551 0.8211 -0.1330
vn -0.5973 0.7938 -0.1142
vn -0.6201 0.7843 0.0197
vn -0.4685 0.8808 0.0683
vn -0.7212 0.4737 0.5055
# 130 vertex normals

vt 0.8822 0.5114 0.0000
vt 1.0834 0.2946 0.0000
vt 1.0709 0.7708 0.0000
vt 0.9065 0.7769 0.0000
vt 0.4906 1.7561 0.0000
vt 0.5346 1.3776 0.0000
vt 0.7267 1.3999 0.0000
vt 0.6770 1.8268 0.0000
vt 0.9188 1.4223 0.0000
vt 0.8684 1.8556 0.0000
vt 0.7410 0.3145 0.0000
vt 0.8230 0.6494 0.0000
vt 0.7569 0.6494 0.0000
vt 0.6906 0.3649 0.0000
vt 0.1917 1.3377 0.0000
vt 0.1775 0.9629 0.0000
vt 0.5774 1.0095 0.0000
vt 0.7695 1.0318 0.0000
vt 0.9616 1.0541 0.0000
vt 1.3631 1.1008 0.0000
vt 1.1967 1.4546 0.0000
vt 0.2888 0.6028 0.0000
vt 0.6202 0.6413 0.0000
vt 0.8123 0.6637 0.0000
vt 1.0044 0.6860 0.0000
vt 1.2812 0.7182 0.0000
vt 0.3835 0.1936 0.0000
vt 0.6693 0.2197 0.0000
vt 0.8623 0.2337 0.0000
vt 1.0613 0.1968 0.0000
vt 1.3265 0.2070 0.0000
vt 0.3335 0.1698 0.0000
vt 0.5356 0.1890 0.0000
vt 0.5218 0.5422 0.0000
vt 0.2477 0.5315 0.0000
vt 0.7485 0.2274 0.0000
vt 0.7415 0.5401 0.0000
vt 0.9625 0.2273 0.0000
vt 0.9736 0.5711 0.0000
vt 1.1532 0.2874 0.0000
vt 1.2078 0.5911 0.0000
vt 0.5060 0.9438 0.0000
vt 0.1935 0.9316 0.0000
vt 0.7156 0.9521 0.0000
vt 0.9616 0.9726 0.0000
vt 1.2164 0.9741 0.0000
vt 0.4890 1.3463 0.0000
vt 0.2218 1.3733 0.0000
vt 0.6998 1.3539 0.0000
vt 0.9532 1.3863 0.0000
vt 1.2408 1.3751 0.0000
vt 0.4536 1.7863 0.0000
vt 0.2720 1.7043 0.0000
vt 0.6769 1.8144 0.0000
vt 0.9109 1.7771 0.0000
vt 1.1439 1.7197 0.0000
vt 0.5696 1.7100 0.0000
vt 0.5805 1.7205 0.0000
vt 0.4343 1.8419 0.0000
vt 0.4403 1.7054 0.0000
vt 0.9834 1.0405 0.0000
vt 0.7379 1.0496 0.0000
vt 0.7279 0.7836 0.0000
vt 1.0024 1.3062 0.0000
vt 0.7478 1.3157 0.0000
vt 0.5990 0.3521 0.0000
vt 0.5990 0.2325 0.0000
vt 0.3036 1.8679 0.0000
vt 0.3108 1.7029 0.0000
vt 0.5736 1.0558 0.0000
vt 0.5637 0.7897 0.0000
vt 0.5834 1.3220 0.0000
vt 0.5073 0.3246 0.0000
vt 0.5072 0.2328 0.0000
vt 0.5536 0.5209 0.0000
vt 0.4336 0.7946 0.0000
vt 0.3942 0.5385 0.0000
vt 0.4531 1.0661 0.0000
vt 0.4255 1.3387 0.0000
vt 0.5962 1.6601 0.0000
vt 0.4286 1.5837 0.0000
vt 0.5990 0.6494 0.0000
vt 0.8525 0.9339 0.0000
vt 0.5990 0.9339 0.0000
vt 0.7560 1.2184 0.0000
vt 0.5990 1.2184 0.0000
vt 0.7999 1.6122 0.0000
vt 0.5990 1.6828 0.0000
vt 0.5073 0.6494 0.0000
vt 0.5073 0.9339 0.0000
vt 0.5073 1.2184 0.0000
vt 0.5073 1.6179 0.0000
vt 0.4206 0.6649 0.0000
vt 0.4155 0.4516 0.0000
vt 0.4097 0.9356 0.0000
vt 0.4191 1.2186 0.0000
vt 0.4199 1.4650 0.0000
vt 0.1449 1.6682 0.0000
vt 0.1451 1.2695 0.0000
vt 0.5760 1.2418 0.0000
vt 0.6345 1.8824 0.0000
vt 0.2253 0.9730 0.0000
vt 0.5495 0.9521 0.0000
vt 0.2136 0.6824 0.0000
vt 0.5230 0.6625 0.0000
vt 0.1871 0.2518 0.0000
vt 0.4772 0.1622 0.0000
vt 0.7891 1.2281 0.0000
vt 0.8361 1.7421 0.0000
vt 0.7626 0.9384 0.0000
vt 0.7361 0.6487 0.0000
vt 0.6929 0.1764 0.0000
vt 1.0062 1.2388 0.0000
vt 1.0237 1.5580 0.0000
vt 1.0279 0.9146 0.0000
vt 1.0077 0.6043 0.0000
vt 0.9208 0.3535 0.0000
vt 0.6853 0.2309 0.0000
vt 0.7690 0.6386 0.0000
vt 0.4875 0.6287 0.0000
vt 0.5093 0.1337 0.0000
vt 0.8279 1.0001 0.0000
vt 0.4718 0.9876 0.0000
vt 0.7500 1.3568 0.0000
vt 0.4560 1.3465 0.0000
vt 0.3582 0.6242 0.0000
vt 0.3791 0.1472 0.0000
vt 0.3424 0.9831 0.0000
vt 0.3266 1.3420 0.0000
vt 0.2321 0.5854 0.0000
vt 0.2448 0.2919 0.0000
vt 0.1694 0.9770 0.0000
vt 0.1989 1.3375 0.0000
vt 0.1864 1.6633 0.0000
# 134 texture coords

g Box001
f 1/1/1 2/2/2 3/3/3 
f 3/3/3 4/4/4 1/1/1 
f 4/5/4 3/6/3 5/7/5 
f 5/7/5 6/8/6 4/5/4 
f 6/8/6 5/7/5 7/9/7 
f 7/9/7 8/10/8 6/8/6 
f 8/11/8 7/12/7 9/13/9 
f 9/13/9 10/14/10 8/11/8 
f 2/15/2 11/16/11 12/17/12 
f 12/17/12 3/6/3 2/15/2 
f 3/6/3 12/17/12 13/18/13 
f 13/18/13 5/7/5 3/6/3 
f 5/7/5 13/18/13 14/19/14 
f 14/19/14 7/9/7 5/7/5 
f 7/9/7 14/19/14 15/20/15 
f 15/20/15 9/21/9 7/9/7 
f 11/16/11 16/22/16 17/23/17 
f 17/23/17 12/17/12 11/16/11 
f 12/17/12 17/23/17 18/24/18 
f 18/24/18 13/18/13 12/17/12 
f 13/18/13 18/24/18 19/25/19 
f 19/25/19 14/19/14 13/18/13 
f 14/19/14 19/25/19 20/26/20 
f 20/26/20 15/20/15 14/19/14 
f 16/22/16 21/27/21 22/28/22 
f 22/28/22 17/23/17 16/22/16 
f 17/23/17 22/28/22 23/29/23 
f 23/29/23 18/24/18 17/23/17 
f 18/24/18 23/29/23 24/30/24 
f 24/30/24 19/25/19 18/24/18 
f 19/25/19 24/30/24 25/31/25 
f 25/31/25 20/26/20 19/25/19 
f 26/32/26 27/33/27 28/34/28 
f 28/34/28 29/35/29 26/32/26 
f 27/33/27 30/36/30 31/37/31 
f 31/37/31 28/34/28 27/33/27 
f 30/36/30 32/38/32 33/39/33 
f 33/39/33 31/37/31 30/36/30 
f 32/38/32 34/40/34 35/41/35 
f 35/41/35 33/39/33 32/38/32 
f 29/35/29 28/34/28 36/42/36 
f 36/42/36 37/43/37 29/35/29 
f 28/34/28 31/37/31 38/44/38 
f 38/44/38 36/42/36 28/34/28 
f 31/37/31 33/39/33 39/45/39 
f 39/45/39 38/44/38 31/37/31 
f 33/39/33 35/41/35 40/46/40 
f 40/46/40 39/45/39 33/39/33 
f 37/43/37 36/42/36 41/47/41 
f 41/47/41 42/48/42 37/43/37 
f 36/42/36 38/44/38 43/49/43 
f 43/49/43 41/47/41 36/42/36 
f 38/44/38 39/45/39 44/50/44 
f 44/50/44 43/49/43 38/44/38 
f 39/45/39 40/46/40 45/51/45 
f 45/51/45 44/50/44 39/45/39 
f 42/48/42 41/47/41 46/52/46 
f 46/52/46 47/53/47 42/48/42 
f 41/47/41 43/49/43 48/54/48 
f 48/54/48 46/52/46 41/47/41 
f 43/49/43 44/50/44 49/55/49 
f 49/55/49 48/54/48 43/49/43 
f 44/50/44 45/51/45 50/56/50 
f 50/56/50 49/55/49 44/50/44 
f 1/57/51 4/58/52 51/59/53 
f 51/59/53 52/60/54 1/57/51 
f 4/4/52 6/61/55 53/62/56 
f 53/62/56 51/63/53 4/4/52 
f 6/61/55 8/64/57 54/65/58 
f 54/65/58 53/62/56 6/61/55 
f 8/11/57 10/14/59 55/66/60 
f 55/66/60 54/67/58 8/11/57 
f 52/60/54 51/59/53 56/68/61 
f 56/68/61 57/69/62 52/60/54 
f 51/63/53 53/62/56 58/70/63 
f 58/70/63 56/71/61 51/63/53 
f 53/62/56 54/65/58 59/72/64 
f 59/72/64 58/70/63 53/62/56 
f 54/67/58 55/66/60 60/73/65 
f 60/73/65 59/74/64 54/67/58 
f 57/75/62 56/71/61 27/76/66 
f 27/76/66 26/77/67 57/75/62 
f 56/71/61 58/70/63 30/78/68 
f 30/78/68 27/76/66 56/71/61 
f 58/70/63 59/72/64 32/79/69 
f 32/79/69 30/78/68 58/70/63 
f 59/72/64 60/80/65 34/81/70 
f 34/81/70 32/79/69 59/72/64 
f 10/14/71 9/13/72 61/82/73 
f 61/82/73 55/66/74 10/14/71 
f 9/13/72 15/83/75 62/84/76 
f 62/84/76 61/82/73 9/13/72 
f 15/83/75 20/85/77 63/86/78 
f 63/86/78 62/84/76 15/83/75 
f 20/85/77 25/87/79 64/88/80 
f 64/88/80 63/86/78 20/85/77 
f 55/66/74 61/82/73 65/89/81 
f 65/89/81 60/73/82 55/66/74 
f 61/82/73 62/84/76 66/90/83 
f 66/90/83 65/89/81 61/82/73 
f 62/84/76 63/86/78 67/91/84 
f 67/91/84 66/90/83 62/84/76 
f 63/86/78 64/88/80 68/92/85 
f 68/92/85 67/91/84 63/86/78 
f 60/73/82 65/89/81 35/93/86 
f 35/93/86 34/94/87 60/73/82 
f 65/89/81 66/90/83 40/95/88 
f 40/95/88 35/93/86 65/89/81 
f 66/90/83 67/91/84 45/96/89 
f 45/96/89 40/95/88 66/90/83 
f 67/91/84 68/92/85 50/97/90 
f 50/97/90 45/96/89 67/91/84 
f 25/98/91 24/99/92 69/100/93 
f 69/100/93 64/101/94 25/98/91 
f 24/99/92 23/102/95 70/103/96 
f 70/103/96 69/100/93 24/99/92 
f 23/102/95 22/104/97 71/105/98 
f 71/105/98 70/103/96 23/102/95 
f 22/104/97 21/106/99 72/107/100 
f 72/107/100 71/105/98 22/104/97 
f 64/101/94 69/100/93 73/108/101 
f 73/108/101 68/109/102 64/101/94 
f 69/100/93 70/103/96 74/110/103 
f 74/110/103 73/108/101 69/100/93 
f 70/103/96 71/105/98 75/111/104 
f 75/111/104 74/110/103 70/103/96 
f 71/105/98 72/107/100 76/112/105 
f 76/112/105 75/111/104 71/105/98 
f 68/109/102 73/108/101 49/113/106 
f 49/113/106 50/114/107 68/109/102 
f 73/108/101 74/110/103 48/115/108 
f 48/115/108 49/113/106 73/108/101 
f 74/110/103 75/111/104 46/116/109 
f 46/116/109 48/115/108 74/110/103 
f 75/111/104 76/112/105 47/117/110 
f 47/117/110 46/116/109 75/111/104 
f 21/118/111 16/119/112 77/120/113 
f 77/120/113 72/121/114 21/118/111 
f 16/119/112 11/122/115 78/123/116 
f 78/123/116 77/120/113 16/119/112 
f 11/122/115 2/124/117 79/125/118 
f 79/125/118 78/123/116 11/122/115 
f 2/124/117 1/57/119 52/60/120 
f 52/60/120 79/125/118 2/124/117 
f 72/121/114 77/120/113 80/126/121 
f 80/126/121 76/127/122 72/121/114 
f 77/120/113 78/123/116 81/128/123 
f 81/128/123 80/126/121 77/120/113 
f 78/123/116 79/125/118 82/129/124 
f 82/129/124 81/128/123 78/123/116 
f 79/125/118 52/60/120 57/69/125 
f 57/69/125 82/129/124 79/125/118 
f 76/127/122 80/126/121 42/130/126 
f 42/130/126 47/131/127 76/127/122 
f 80/126/121 81/128/123 37/132/128 
f 37/132/128 42/130/126 80/126/121 
f 81/128/123 82/129/124 29/133/129 
f 29/133/129 37/132/128 81/128/123 
f 82/129/124 57/69/125 26/134/130 
f 26/134/130 29/133/129 82/129/124 
# 160 faces

