# 3ds Max Wavefront OBJ Exporter v0.97b - (c)2007 guruware
# File Created: 26.03.2015 12:01:48

#
# object Rock002
#

v  0.1140 0.5905 -0.2157
v  0.4146 0.5641 -0.2119
v  0.2185 0.5835 -0.5304
v  0.7049 0.3909 -0.1907
v  0.5776 0.4192 -0.5305
v  0.2643 0.3198 -0.6576
v  -0.1892 0.6806 -0.4014
v  -0.0938 0.4389 -0.7656
v  -0.3383 0.3200 -0.4885
v  -0.1850 0.6587 0.0305
v  -0.5641 0.4589 -0.1132
v  -0.3817 0.3750 0.1885
v  0.1974 0.6232 0.0887
v  -0.1408 0.5193 0.4119
v  0.2467 0.4023 0.3293
v  0.6708 0.5590 0.2549
v  0.7941 0.1071 -0.0608
v  0.7864 0.0650 -0.4905
v  0.7537 -0.2474 0.0441
v  0.7579 -0.2639 -0.3692
v  0.5263 -0.1605 -0.5633
v  0.5145 0.0639 -0.7643
v  0.1460 0.0680 -0.8815
v  0.2934 -0.1993 -0.7532
v  0.0037 -0.2143 -0.8259
v  -0.2198 0.0503 -0.6711
v  -0.5023 0.0456 -0.3688
v  -0.1489 -0.1993 -0.4778
v  -0.3588 -0.2229 -0.2293
v  -0.5567 0.0568 0.0520
v  -0.2960 0.1036 0.3573
v  -0.2500 -0.2236 0.0341
v  -0.0650 -0.1916 0.2912
v  0.0833 0.1318 0.4858
v  0.6158 0.1426 0.4681
v  0.2606 -0.1404 0.0458
v  0.2283 -0.4134 -0.4319
v  0.1488 -0.3620 -0.6154
v  0.4541 -0.3799 -0.6036
v  -0.0386 -0.3540 -0.3061
v  0.0847 -0.3144 -0.1336
v  0.4564 -0.4320 -0.2834
# 42 vertices

vn 0.1612 0.9865 -0.0286
vn 0.3063 0.9421 -0.1363
vn 0.2608 0.8466 -0.4640
vn 0.8057 0.5718 -0.1546
vn 0.5475 0.6483 -0.5291
vn 0.2883 0.5007 -0.8162
vn -0.2944 0.9064 -0.3029
vn -0.2820 0.4709 -0.8359
vn -0.7574 0.2677 -0.5955
vn -0.2459 0.9454 0.2140
vn -0.8792 0.4762 0.0157
vn -0.7330 0.3844 0.5611
vn 0.1091 0.9690 0.2216
vn -0.2523 0.5885 0.7681
vn 0.1073 0.5755 0.8107
vn 0.5675 0.7019 0.4305
vn 0.9917 0.0787 0.1021
vn 0.8914 0.0229 -0.4527
vn 0.6170 -0.6445 0.4516
vn 0.8010 -0.5212 -0.2944
vn 0.6134 -0.2982 -0.7313
vn 0.5164 0.0125 -0.8563
vn 0.0320 0.1083 -0.9936
vn 0.3189 -0.4666 -0.8250
vn -0.3554 -0.5304 -0.7696
vn -0.6982 -0.1826 -0.6922
vn -0.8590 -0.2384 -0.4531
vn -0.5955 -0.6901 -0.4112
vn -0.6205 -0.7719 -0.1380
vn -0.8949 -0.2887 0.3403
vn -0.5805 -0.2185 0.7844
vn -0.4345 -0.8348 0.3381
vn -0.0470 -0.7703 0.6359
vn 0.0424 -0.2124 0.9763
vn 0.4458 -0.1732 0.8782
vn 0.1261 -0.8001 0.5865
vn -0.1381 -0.9895 -0.0420
vn -0.2033 -0.8817 -0.4258
vn 0.3876 -0.6906 -0.6106
vn -0.3144 -0.9491 -0.0202
vn -0.0019 -0.9207 0.3902
vn 0.1328 -0.9728 0.1896
# 42 vertex normals

vt 0.3465 -0.1668 0.0000
vt 0.1461 -0.3958 0.0000
vt 0.5047 -0.4231 0.0000
vt -0.0805 -0.7018 0.0000
vt 0.2973 -0.7548 0.0000
vt 1.0986 -0.2568 0.0000
vt 1.4244 -0.4736 0.0000
vt 1.3734 -0.1334 0.0000
vt 0.6599 -0.0903 0.0000
vt 1.1446 0.0688 0.0000
vt 0.8070 -0.0330 0.0000
vt 0.7946 0.0284 0.0000
vt 0.9352 0.2897 0.0000
vt 0.6590 -0.0851 0.0000
vt 0.3683 0.1567 0.0000
vt 0.7727 0.0414 0.0000
vt 0.6426 0.3727 0.0000
vt 0.7231 0.0260 0.0000
vt 0.3408 0.4760 0.0000
vt 0.0579 -0.0460 0.0000
vt 0.0343 0.3411 0.0000
vt -0.2267 0.1162 0.0000
vt -0.3236 -0.2292 0.0000
vt -0.2679 -0.3177 0.0000
vt -0.1066 -0.6800 0.0000
vt 1.5992 -0.8208 0.0000
vt 1.9504 -1.0059 0.0000
vt 1.9247 -0.5271 0.0000
vt 2.5076 -1.2902 0.0000
vt 2.2878 -0.7656 0.0000
vt 1.9890 -0.4773 0.0000
vt 2.3326 -0.2115 0.0000
vt 2.0083 -0.0705 0.0000
vt 1.6905 -0.1583 0.0000
vt 1.4932 0.1481 0.0000
vt 1.8525 0.1633 0.0000
vt 1.6797 0.4611 0.0000
vt 1.2443 0.4238 0.0000
vt 0.9275 0.6208 0.0000
vt 1.2928 0.5444 0.0000
vt 1.5194 0.8328 0.0000
vt 1.1908 0.9040 0.0000
vt 0.8712 0.9702 0.0000
vt 0.4963 0.8038 0.0000
vt 0.1048 0.7225 0.0000
vt 0.4793 0.8628 0.0000
vt 0.4801 1.2384 0.0000
vt 0.1682 1.1128 0.0000
vt -0.1867 0.9832 0.0000
vt -0.3654 0.4535 0.0000
vt -0.5909 0.0793 0.0000
vt -0.2908 0.5999 0.0000
vt -0.5516 1.0266 0.0000
vt -0.7177 0.5072 0.0000
vt -1.1166 0.9677 0.0000
vt 1.4555 -0.4675 0.0000
vt 1.6039 0.4952 0.0000
vt 0.5532 0.7702 0.0000
vt 2.5530 -1.1736 0.0000
vt 1.9897 -1.4055 0.0000
vt 1.6267 -1.2169 0.0000
vt 2.3239 0.3964 0.0000
vt 2.0645 0.4333 0.0000
vt 2.1944 0.1511 0.0000
vt 1.7362 0.4923 0.0000
vt 1.8823 0.1806 0.0000
vt 2.2652 0.6513 0.0000
vt 2.1848 0.9720 0.0000
vt 1.9579 0.7367 0.0000
vt 1.7351 0.4849 0.0000
vt 2.3283 0.3975 0.0000
vt 2.5448 0.5474 0.0000
vt 2.8677 0.7670 0.0000
vt 2.5100 0.8885 0.0000
vt 2.5778 0.1888 0.0000
vt 3.0020 -0.1554 0.0000
vt 2.9467 0.4094 0.0000
vt 2.5579 0.1714 0.0000
vt 2.5577 0.1201 0.0000
vt 2.8925 -0.3114 0.0000
# 80 texture coords

g Rock002
f 1/1/1 2/2/2 3/3/3 
f 2/2/2 4/4/4 5/5/5 
f 2/2/2 5/5/5 3/3/3 
f 3/6/3 5/7/5 6/8/6 
f 1/1/1 3/3/3 7/9/7 
f 3/6/3 6/8/6 8/10/8 
f 3/6/3 8/10/8 7/11/7 
f 7/12/7 8/10/8 9/13/9 
f 1/1/1 7/14/7 10/15/10 
f 7/16/7 9/13/9 11/17/11 
f 7/18/7 11/17/11 10/15/10 
f 10/15/10 11/17/11 12/19/12 
f 1/1/1 10/15/10 13/20/13 
f 10/15/10 12/19/12 14/21/14 
f 10/15/10 14/21/14 13/20/13 
f 13/20/13 14/21/14 15/22/15 
f 1/1/1 13/20/13 2/2/2 
f 13/20/13 15/22/15 16/23/16 
f 13/20/13 16/24/16 2/2/2 
f 2/2/2 16/24/16 4/25/4 
f 4/26/4 17/27/17 18/28/18 
f 17/27/17 19/29/19 20/30/20 
f 17/27/17 20/30/20 18/28/18 
f 18/31/18 20/32/20 21/33/21 
f 6/8/6 22/34/22 23/35/23 
f 22/34/22 21/33/21 24/36/24 
f 22/34/22 24/36/24 23/35/23 
f 23/35/23 24/36/24 25/37/25 
f 9/13/9 26/38/26 27/39/27 
f 26/40/26 25/41/25 28/42/28 
f 26/40/26 28/42/28 27/39/27 
f 27/39/27 28/42/28 29/43/29 
f 12/19/12 30/44/30 31/45/31 
f 30/46/30 29/47/29 32/48/32 
f 30/46/30 32/48/32 31/45/31 
f 31/45/31 32/48/32 33/49/33 
f 15/22/15 34/50/34 35/51/35 
f 34/52/34 33/49/33 36/53/36 
f 34/52/34 36/53/36 35/54/35 
f 35/54/35 36/53/36 19/55/19 
f 21/33/21 22/34/22 18/31/18 
f 22/34/22 6/8/6 5/56/5 
f 22/34/22 5/56/5 18/28/18 
f 18/28/18 5/56/5 4/26/4 
f 25/57/25 26/38/26 23/35/23 
f 26/38/26 9/13/9 8/10/8 
f 26/38/26 8/10/8 23/35/23 
f 23/35/23 8/10/8 6/8/6 
f 29/43/29 30/58/30 27/39/27 
f 30/58/30 12/19/12 11/17/11 
f 30/58/30 11/17/11 27/39/27 
f 27/39/27 11/17/11 9/13/9 
f 33/49/33 34/52/34 31/45/31 
f 34/50/34 15/22/15 14/21/14 
f 34/52/34 14/21/14 31/45/31 
f 31/45/31 14/21/14 12/19/12 
f 19/59/19 17/27/17 35/60/35 
f 17/27/17 4/26/4 16/61/16 
f 17/27/17 16/61/16 35/60/35 
f 35/51/35 16/23/16 15/22/15 
f 37/62/37 38/63/38 39/64/39 
f 38/63/38 25/65/25 24/66/24 
f 38/63/38 24/66/24 39/64/39 
f 39/64/39 24/66/24 21/33/21 
f 37/62/37 40/67/40 38/63/38 
f 40/67/40 29/68/29 28/69/28 
f 40/67/40 28/69/28 38/63/38 
f 38/63/38 28/69/28 25/70/25 
f 37/71/37 41/72/41 40/67/40 
f 41/72/41 33/73/33 32/74/32 
f 41/72/41 32/74/32 40/67/40 
f 40/67/40 32/74/32 29/68/29 
f 37/71/37 42/75/42 41/72/41 
f 42/75/42 19/76/19 36/77/36 
f 42/75/42 36/77/36 41/72/41 
f 41/72/41 36/77/36 33/73/33 
f 37/62/37 39/64/39 42/78/42 
f 39/64/39 21/33/21 20/32/20 
f 39/64/39 20/32/20 42/79/42 
f 42/79/42 20/32/20 19/80/19 
# 80 faces

