# 3ds Max Wavefront OBJ Exporter v0.97b - (c)2007 guruware
# File Created: 27.03.2015 13:41:11

#
# object Plane002
#

v  0.0000 0.1463 2.0603
v  -0.0000 0.1463 -2.0603
v  0.0000 4.2668 -2.0603
v  0.0000 4.2668 2.0603
v  -2.0603 0.1463 0.0000
v  2.0603 0.1463 0.0000
v  2.0603 4.2668 0.0000
v  -2.0603 4.2668 0.0000
# 8 vertices

vn 1.0000 -0.0000 -0.0000
vn -0.0000 -0.0000 1.0000
# 2 vertex normals

vt 0.0000 0.0000 0.0000
vt 1.0000 0.0000 0.0000
vt 1.0000 1.0000 0.0000
vt 0.0000 1.0000 0.0000
# 4 texture coords

g Plane002
s 1
f 1/1/1 2/2/1 3/3/1 
f 3/3/1 4/4/1 1/1/1 
f 5/1/2 6/2/2 7/3/2 
f 7/3/2 8/4/2 5/1/2 
# 4 faces

