# 3ds Max Wavefront OBJ Exporter v0.97b - (c)2007 guruware
# File Created: 24.03.2015 15:48:53

#
# object Cylinder001
#

v  -0.0000 -1.8550 -0.2319
v  0.6345 -1.7432 -0.2319
v  0.6345 -1.7432 0.2319
v  -0.0000 -1.8550 0.2319
v  1.1924 -1.4210 -0.2319
v  1.1924 -1.4210 0.2319
v  1.6065 -0.9275 -0.2319
v  1.6065 -0.9275 0.2319
v  1.8269 -0.3221 -0.2319
v  1.8269 -0.3221 0.2319
v  1.8269 0.3221 -0.2319
v  1.8269 0.3221 0.2319
v  1.6065 0.9275 -0.2319
v  1.6065 0.9275 0.2319
v  1.1924 1.4210 -0.2319
v  1.1924 1.4210 0.2319
v  0.6345 1.7432 -0.2319
v  0.6345 1.7432 0.2319
v  0.0000 1.8550 -0.2319
v  0.0000 1.8550 0.2319
v  -0.6345 1.7432 -0.2319
v  -0.6345 1.7432 0.2319
v  -1.1924 1.4210 -0.2319
v  -1.1924 1.4210 0.2319
v  -1.6065 0.9275 -0.2319
v  -1.6065 0.9275 0.2319
v  -1.8269 0.3221 -0.2319
v  -1.8269 0.3221 0.2319
v  -1.8269 -0.3221 -0.2319
v  -1.8269 -0.3221 0.2319
v  -1.6065 -0.9275 -0.2319
v  -1.6065 -0.9275 0.2319
v  -1.1924 -1.4210 -0.2319
v  -1.1924 -1.4210 0.2319
v  -0.6345 -1.7432 -0.2319
v  -0.6345 -1.7432 0.2319
# 36 vertices

vn -0.0000 -0.7423 -0.6700
vn 0.2539 -0.6976 -0.6700
vn 0.2539 -0.6976 0.6700
vn -0.0000 -0.7423 0.6700
vn 0.4772 -0.5687 -0.6700
vn 0.4772 -0.5687 0.6700
vn 0.6429 -0.3712 -0.6700
vn 0.6429 -0.3712 0.6700
vn 0.7311 -0.1289 -0.6700
vn 0.7311 -0.1289 0.6700
vn 0.7311 0.1289 -0.6700
vn 0.7311 0.1289 0.6700
vn 0.6429 0.3712 -0.6700
vn 0.6429 0.3712 0.6700
vn 0.4772 0.5687 -0.6700
vn 0.4772 0.5687 0.6700
vn 0.2539 0.6976 -0.6700
vn 0.2539 0.6976 0.6700
vn 0.0000 0.7423 -0.6700
vn 0.0000 0.7423 0.6700
vn -0.2539 0.6976 -0.6700
vn -0.2539 0.6976 0.6700
vn -0.4772 0.5687 -0.6700
vn -0.4772 0.5687 0.6700
vn -0.6429 0.3712 -0.6700
vn -0.6429 0.3712 0.6700
vn -0.7311 0.1289 -0.6700
vn -0.7311 0.1289 0.6700
vn -0.7311 -0.1289 -0.6700
vn -0.7311 -0.1289 0.6700
vn -0.6429 -0.3712 -0.6700
vn -0.6429 -0.3712 0.6700
vn -0.4772 -0.5687 -0.6700
vn -0.4772 -0.5687 0.6700
vn -0.2539 -0.6976 -0.6700
vn -0.2539 -0.6976 0.6700
# 36 vertex normals

vt 0.3335 0.4170 1.0000
vt 0.3364 0.4170 1.0000
vt 0.3364 0.6494 1.0000
vt 0.3335 0.6494 1.0000
vt 0.3393 0.4170 1.0000
vt 0.3393 0.6494 1.0000
vt 0.3422 0.4170 1.0000
vt 0.3422 0.6494 1.0000
vt 0.3451 0.4170 1.0000
vt 0.3451 0.6494 1.0000
vt 0.3480 0.4170 1.0000
vt 0.3480 0.6494 1.0000
vt 0.2958 0.4170 1.0000
vt 0.2987 0.4170 1.0000
vt 0.2987 0.6494 1.0000
vt 0.2958 0.6494 1.0000
vt 0.3016 0.4170 1.0000
vt 0.3016 0.6494 1.0000
vt 0.3045 0.4170 1.0000
vt 0.3045 0.6494 1.0000
vt 0.3074 0.4170 1.0000
vt 0.3074 0.6494 1.0000
vt 0.3103 0.4170 1.0000
vt 0.3103 0.6494 1.0000
vt 0.3132 0.4170 1.0000
vt 0.3132 0.6494 1.0000
vt 0.3161 0.4170 1.0000
vt 0.3161 0.6494 1.0000
vt 0.3190 0.4170 1.0000
vt 0.3190 0.6494 1.0000
vt 0.3219 0.4170 1.0000
vt 0.3219 0.6494 1.0000
vt 0.3248 0.4170 1.0000
vt 0.3248 0.6494 1.0000
vt 0.3277 0.4170 1.0000
vt 0.3277 0.6494 1.0000
vt 0.3306 0.4170 1.0000
vt 0.3306 0.6494 1.0000
vt 0.2193 0.8354 0.2500
vt 0.1234 0.7192 0.2500
vt 0.0731 0.5772 0.2500
vt 0.0744 0.4266 0.2500
vt 0.1271 0.2855 0.2500
vt 0.2249 0.1710 0.2500
vt 0.3559 0.0968 0.2500
vt 0.5045 0.0719 0.2500
vt 0.6526 0.0993 0.2500
vt 0.7824 0.1757 0.2500
vt 0.8782 0.2919 0.2500
vt 0.9285 0.4338 0.2500
vt 0.9273 0.5844 0.2500
vt 0.8746 0.7255 0.2500
vt 0.7768 0.8401 0.2500
vt 0.6457 0.9143 0.2500
vt 0.4972 0.9392 0.2500
vt 0.3491 0.9118 0.2500
vt 0.3525 0.9130 0.2500
vt 0.2221 0.8377 0.2500
vt 0.1253 0.7224 0.2500
vt 0.0737 0.5808 0.2500
vt 0.0737 0.4302 0.2500
vt 0.1253 0.2887 0.2500
vt 0.2221 0.1733 0.2500
vt 0.3525 0.0980 0.2500
vt 0.5008 0.0719 0.2500
vt 0.6492 0.0980 0.2500
vt 0.7796 0.1733 0.2500
vt 0.8764 0.2887 0.2500
vt 0.9279 0.4302 0.2500
vt 0.9279 0.5808 0.2500
vt 0.8764 0.7224 0.2500
vt 0.7796 0.8377 0.2500
vt 0.6492 0.9130 0.2500
vt 0.5008 0.9392 0.2500
# 74 texture coords

g Cylinder001
f 1/1/1 2/2/2 3/3/3 
f 3/3/3 4/4/4 1/1/1 
f 2/2/2 5/5/5 6/6/6 
f 6/6/6 3/3/3 2/2/2 
f 5/5/5 7/7/7 8/8/8 
f 8/8/8 6/6/6 5/5/5 
f 7/7/7 9/9/9 10/10/10 
f 10/10/10 8/8/8 7/7/7 
f 9/9/9 11/11/11 12/12/12 
f 12/12/12 10/10/10 9/9/9 
f 11/13/11 13/14/13 14/15/14 
f 14/15/14 12/16/12 11/13/11 
f 13/14/13 15/17/15 16/18/16 
f 16/18/16 14/15/14 13/14/13 
f 15/17/15 17/19/17 18/20/18 
f 18/20/18 16/18/16 15/17/15 
f 17/19/17 19/21/19 20/22/20 
f 20/22/20 18/20/18 17/19/17 
f 19/21/19 21/23/21 22/24/22 
f 22/24/22 20/22/20 19/21/19 
f 21/23/21 23/25/23 24/26/24 
f 24/26/24 22/24/22 21/23/21 
f 23/25/23 25/27/25 26/28/26 
f 26/28/26 24/26/24 23/25/23 
f 25/27/25 27/29/27 28/30/28 
f 28/30/28 26/28/26 25/27/25 
f 27/29/27 29/31/29 30/32/30 
f 30/32/30 28/30/28 27/29/27 
f 29/31/29 31/33/31 32/34/32 
f 32/34/32 30/32/30 29/31/29 
f 31/33/31 33/35/33 34/36/34 
f 34/36/34 32/34/32 31/33/31 
f 33/35/33 35/37/35 36/38/36 
f 36/38/36 34/36/34 33/35/33 
f 35/37/35 1/1/1 4/4/4 
f 4/4/4 36/38/36 35/37/35 
f 33/39/33 31/40/31 29/41/29 
f 29/41/29 27/42/27 25/43/25 
f 25/43/25 23/44/23 21/45/21 
f 29/41/29 25/43/25 21/45/21 
f 21/45/21 19/46/19 17/47/17 
f 17/47/17 15/48/15 13/49/13 
f 21/45/21 17/47/17 13/49/13 
f 13/49/13 11/50/11 9/51/9 
f 9/51/9 7/52/7 5/53/5 
f 13/49/13 9/51/9 5/53/5 
f 21/45/21 13/49/13 5/53/5 
f 29/41/29 21/45/21 5/53/5 
f 5/53/5 2/54/2 1/55/1 
f 29/41/29 5/53/5 1/55/1 
f 33/39/33 29/41/29 1/55/1 
f 35/56/35 33/39/33 1/55/1 
f 3/57/3 6/58/6 8/59/8 
f 8/59/8 10/60/10 12/61/12 
f 12/61/12 14/62/14 16/63/16 
f 8/59/8 12/61/12 16/63/16 
f 16/63/16 18/64/18 20/65/20 
f 20/65/20 22/66/22 24/67/24 
f 16/63/16 20/65/20 24/67/24 
f 24/67/24 26/68/26 28/69/28 
f 28/69/28 30/70/30 32/71/32 
f 24/67/24 28/69/28 32/71/32 
f 16/63/16 24/67/24 32/71/32 
f 8/59/8 16/63/16 32/71/32 
f 32/71/32 34/72/34 36/73/36 
f 8/59/8 32/71/32 36/73/36 
f 3/57/3 8/59/8 36/73/36 
f 4/74/4 3/57/3 36/73/36 
# 68 faces

