# 3ds Max Wavefront OBJ Exporter v0.97b - (c)2007 guruware
# File Created: 26.03.2015 12:47:42

#
# object Cylinder004
#

v  -0.0002 -0.0115 -0.0016
v  0.0125 -0.0110 0.0057
v  -0.0002 -0.0106 0.0130
v  0.0125 -0.0120 -0.0089
v  -0.0002 -0.0125 -0.0162
v  -0.0129 -0.0120 -0.0089
v  -0.0129 -0.0110 0.0057
v  -0.0028 0.3209 -0.0385
v  -0.0155 0.3211 -0.0311
v  -0.0027 0.3175 -0.0527
v  -0.0152 0.3144 -0.0597
v  -0.0279 0.3147 -0.0523
v  -0.0280 0.3180 -0.0381
v  -0.0418 0.5066 -0.1071
v  -0.0544 0.5065 -0.0996
v  -0.0408 0.4996 -0.1200
v  -0.0525 0.4925 -0.1253
v  -0.0651 0.4924 -0.1178
v  -0.0660 0.4994 -0.1050
v  -0.0928 0.6141 -0.1879
v  -0.1053 0.6137 -0.1803
v  -0.0909 0.6050 -0.1993
v  -0.1015 0.5956 -0.2030
v  -0.1140 0.5952 -0.1953
v  -0.1159 0.6043 -0.1840
v  -0.1034 0.6047 -0.1916
v  -0.0002 0.0177 -0.0016
v  0.0125 0.0177 0.0057
v  -0.0002 0.0177 0.0131
v  0.0125 0.0177 -0.0089
v  -0.0002 0.0177 -0.0162
v  -0.0129 0.0177 -0.0089
v  -0.0129 0.0177 0.0057
v  0.0125 0.2415 0.0412
v  -0.0002 0.2395 0.0483
v  0.0125 0.2454 0.0271
v  -0.0002 0.2474 0.0200
v  -0.0129 0.2454 0.0271
v  -0.0129 0.2415 0.0412
v  0.0125 0.4604 0.1285
v  -0.0002 0.4568 0.1349
v  0.0125 0.4676 0.1157
v  -0.0002 0.4711 0.1093
v  -0.0129 0.4676 0.1157
v  -0.0129 0.4604 0.1285
v  0.0125 0.5768 0.2356
v  -0.0002 0.5699 0.2379
v  0.0125 0.5907 0.2310
v  -0.0002 0.5977 0.2287
v  -0.0129 0.5907 0.2310
v  -0.0129 0.5768 0.2356
v  -0.0002 0.5838 0.2333
v  0.0020 -0.0065 -0.0000
v  0.0093 -0.0065 -0.0127
v  0.0166 -0.0064 -0.0000
v  -0.0054 -0.0066 -0.0127
v  -0.0127 -0.0066 -0.0000
v  -0.0054 -0.0066 0.0126
v  0.0093 -0.0065 0.0126
v  0.0350 0.2119 -0.0127
v  0.0421 0.2100 -0.0000
v  0.0209 0.2157 -0.0127
v  0.0138 0.2177 -0.0000
v  0.0209 0.2157 0.0126
v  0.0350 0.2119 0.0126
v  0.1027 0.3712 -0.0127
v  0.1090 0.3675 -0.0000
v  0.0901 0.3787 -0.0127
v  0.0838 0.3824 -0.0000
v  0.0901 0.3787 0.0126
v  0.1027 0.3712 0.0126
v  0.1933 0.5001 -0.0127
v  0.1991 0.4956 -0.0000
v  0.1817 0.5091 -0.0127
v  0.1759 0.5136 -0.0000
v  0.1817 0.5091 0.0126
v  0.1933 0.5001 0.0126
v  0.1875 0.5046 -0.0000
v  -0.2736 0.5743 -0.1341
v  -0.2830 0.6114 -0.0655
v  -0.2066 0.6090 -0.1422
v  -0.2185 0.6449 -0.0733
v  -0.1369 0.6389 -0.1442
v  -0.1513 0.6737 -0.0752
v  -0.0653 0.6635 -0.1401
v  -0.0823 0.6974 -0.0713
v  0.0074 0.6826 -0.1300
v  -0.0122 0.7157 -0.0616
v  -0.2559 0.5256 -0.1931
v  -0.1882 0.5608 -0.2013
v  -0.1176 0.5910 -0.2033
v  -0.0451 0.6159 -0.1992
v  0.0285 0.6352 -0.1890
v  -0.2309 0.4676 -0.2398
v  -0.1640 0.5024 -0.2479
v  -0.0943 0.5322 -0.2499
v  -0.0227 0.5569 -0.2459
v  0.0501 0.5759 -0.2358
v  -0.1998 0.4031 -0.2720
v  -0.1353 0.4366 -0.2798
v  -0.0681 0.4654 -0.2817
v  0.0010 0.4891 -0.2778
v  0.0710 0.5075 -0.2681
v  0.1526 0.5363 0.0706
v  0.1632 0.5101 0.1069
v  0.1834 0.5147 0.0476
v  0.1922 0.4897 0.0852
v  0.2095 0.4874 0.0249
v  0.2168 0.4640 0.0639
v  0.2304 0.4552 0.0032
v  0.2364 0.4337 0.0434
v  0.2454 0.4189 -0.0170
v  0.2505 0.3996 0.0245
v  0.1356 0.5544 0.0318
v  0.1670 0.5323 0.0083
v  0.1937 0.5045 -0.0148
v  0.2150 0.4716 -0.0369
v  0.2303 0.4347 -0.0575
v  0.1133 0.5634 -0.0073
v  0.1440 0.5417 -0.0304
v  0.1702 0.5144 -0.0531
v  0.1911 0.4822 -0.0748
v  0.2060 0.4460 -0.0949
v  0.0866 0.5627 -0.0448
v  0.1156 0.5424 -0.0665
v  0.1402 0.5167 -0.0879
v  0.1598 0.4864 -0.1083
v  0.1739 0.4523 -0.1273
v  -0.0791 0.5174 0.2233
v  -0.0733 0.4722 0.2301
v  -0.0405 0.5236 0.2428
v  -0.0378 0.4780 0.2481
v  0.0020 0.5256 0.2531
v  0.0013 0.4798 0.2575
v  0.0457 0.5233 0.2533
v  0.0415 0.4777 0.2577
v  0.0878 0.5169 0.2435
v  0.0803 0.4718 0.2488
v  -0.0795 0.5611 0.2088
v  -0.0398 0.5675 0.2289
v  0.0038 0.5696 0.2394
v  0.0486 0.5672 0.2397
v  0.0919 0.5606 0.2297
v  -0.0745 0.6016 0.1874
v  -0.0358 0.6078 0.2070
v  0.0066 0.6098 0.2172
v  0.0503 0.6075 0.2175
v  0.0924 0.6010 0.2077
v  -0.0643 0.6370 0.1599
v  -0.0287 0.6427 0.1779
v  0.0104 0.6446 0.1873
v  0.0505 0.6425 0.1876
v  0.0893 0.6365 0.1786
# 153 vertices

vn 0.0000 -0.9978 0.0666
vn 0.0141 0.1326 0.9911
vn 0.8457 0.2248 0.4840
vn 0.0122 0.2411 0.9704
vn 0.8583 0.1064 0.5019
vn 0.8845 -0.0041 -0.4666
vn 0.8783 -0.0231 -0.4776
vn 0.0356 -0.2353 -0.9713
vn 0.0149 -0.1311 -0.9913
vn -0.8638 -0.2198 -0.4533
vn -0.8692 -0.1042 -0.4833
vn -0.8437 0.0277 0.5361
vn -0.8529 0.0302 0.5211
vn 0.7895 0.4723 0.3920
vn -0.0326 0.4674 0.8834
vn 0.8812 0.0329 -0.4715
vn 0.0893 -0.4506 -0.8883
vn -0.8135 -0.4591 -0.3570
vn -0.8362 0.0202 0.5481
vn 0.7466 0.5881 0.3109
vn -0.0848 0.5729 0.8152
vn 0.8665 0.0369 -0.4978
vn 0.1158 -0.5618 -0.8191
vn -0.7600 -0.5810 -0.2914
vn -0.8445 0.0016 0.5355
vn -0.3942 0.6834 -0.6145
vn -0.3942 0.6834 -0.6144
vn -0.3943 0.6833 -0.6145
vn -0.3941 0.6834 -0.6145
vn 0.0000 -1.0000 -0.0001
vn -0.0000 -1.0000 -0.0001
vn 0.0001 -0.1566 0.9877
vn 0.8813 -0.1253 0.4556
vn 0.0000 -0.2649 0.9643
vn 0.8852 -0.0728 0.4595
vn 0.8507 0.1392 -0.5068
vn 0.8415 0.0843 -0.5336
vn -0.0000 0.2651 -0.9642
vn -0.0000 0.1561 -0.9877
vn -0.8507 0.1391 -0.5069
vn -0.8415 0.0844 -0.5336
vn -0.8813 -0.1253 0.4556
vn -0.8852 -0.0729 0.4594
vn 0.8909 -0.2408 0.3851
vn -0.0008 -0.5340 0.8455
vn 0.8400 0.2935 -0.4564
vn 0.0005 0.5345 -0.8452
vn -0.8403 0.2923 -0.4566
vn -0.8906 -0.2404 0.3861
vn 0.9148 -0.2722 0.2985
vn -0.0017 -0.6752 0.7376
vn 0.7607 0.4435 -0.4739
vn 0.0009 0.6848 -0.7287
vn -0.7619 0.4443 -0.4712
vn -0.9145 -0.2740 0.2978
vn 0.0000 0.3157 0.9489
vn 0.0000 0.3158 0.9488
vn 0.0001 0.3156 0.9489
vn -0.0001 0.3156 0.9489
vn 0.0073 -1.0000 -0.0000
vn 0.9931 -0.1169 0.0000
vn 0.4489 -0.1193 -0.8856
vn 0.9666 -0.2563 0.0000
vn 0.4687 -0.0552 -0.8816
vn -0.5146 0.1365 -0.8465
vn -0.5279 0.0623 -0.8470
vn -0.9664 0.2569 -0.0000
vn -0.9931 0.1172 -0.0000
vn -0.5146 0.1365 0.8465
vn -0.5279 0.0623 0.8470
vn 0.4489 -0.1193 0.8856
vn 0.4687 -0.0551 0.8816
vn 0.4142 -0.2306 -0.8805
vn 0.8745 -0.4850 -0.0000
vn -0.4586 0.2542 -0.8515
vn -0.8738 0.4863 0.0000
vn -0.4586 0.2542 0.8515
vn 0.4141 -0.2306 0.8805
vn 0.3998 -0.2810 -0.8725
vn 0.8181 -0.5750 -0.0000
vn -0.4188 0.2943 -0.8591
vn -0.8183 0.5748 0.0000
vn -0.4189 0.2942 0.8590
vn 0.3998 -0.2810 0.8725
vn 0.6141 0.7893 -0.0000
vn 0.6141 0.7893 0.0000
vn -0.4331 0.7023 -0.5650
vn -0.4507 0.7577 -0.4720
vn -0.3856 0.7260 -0.5694
vn -0.4046 0.7808 -0.4760
vn -0.2878 0.7680 -0.5722
vn -0.3098 0.8214 -0.4788
vn -0.1873 0.8025 -0.5665
vn -0.2123 0.8550 -0.4733
vn -0.1363 0.8167 -0.5607
vn -0.1628 0.8687 -0.4678
vn -0.3833 0.5685 -0.7279
vn -0.3346 0.5927 -0.7326
vn -0.2345 0.6356 -0.7356
vn -0.1315 0.6710 -0.7297
vn -0.0794 0.6857 -0.7236
vn -0.3156 0.4080 -0.8567
vn -0.2679 0.4314 -0.8615
vn -0.1701 0.4733 -0.8643
vn -0.0695 0.5078 -0.8586
vn -0.0187 0.5225 -0.8525
vn -0.2754 0.3192 -0.9068
vn -0.2291 0.3416 -0.9115
vn -0.1342 0.3822 -0.9143
vn -0.0368 0.4157 -0.9088
vn 0.0125 0.4300 -0.9027
vn 0.6555 0.7311 0.1893
vn 0.6847 0.6709 0.2848
vn 0.7101 0.6884 0.1478
vn 0.7374 0.6294 0.2450
vn 0.8058 0.5886 0.0648
vn 0.8299 0.5330 0.1649
vn 0.8821 0.4709 -0.0146
vn 0.9036 0.4193 0.0882
vn 0.9121 0.4065 -0.0529
vn 0.9326 0.3573 0.0508
vn 0.5727 0.8197 -0.0045
vn 0.6285 0.7763 -0.0477
vn 0.7268 0.6738 -0.1329
vn 0.8052 0.5529 -0.2145
vn 0.8362 0.4865 -0.2532
vn 0.4600 0.8655 -0.1980
vn 0.5139 0.8234 -0.2408
vn 0.6096 0.7236 -0.3237
vn 0.6859 0.6058 -0.4032
vn 0.7166 0.5410 -0.4402
vn 0.3929 0.8716 -0.2932
vn 0.4448 0.8307 -0.3348
vn 0.5372 0.7343 -0.4149
vn 0.6109 0.6206 -0.4916
vn 0.6408 0.5580 -0.5272
vn -0.4674 0.1762 0.8663
vn -0.4604 0.0747 0.8846
vn -0.3556 0.1893 0.9153
vn -0.3515 0.0867 0.9322
vn -0.1176 0.2007 0.9726
vn -0.1198 0.0977 0.9880
vn 0.1272 0.1878 0.9739
vn 0.1184 0.0853 0.9893
vn 0.2474 0.1741 0.9531
vn 0.2356 0.0726 0.9691
vn -0.4668 0.3680 0.8041
vn -0.3527 0.3828 0.8539
vn -0.1097 0.3945 0.9123
vn 0.1402 0.3814 0.9137
vn 0.2629 0.3657 0.8928
vn -0.4473 0.5448 0.7093
vn -0.3352 0.5607 0.7571
vn -0.0972 0.5720 0.8145
vn 0.1475 0.5592 0.8158
vn 0.2676 0.5426 0.7962
vn -0.4301 0.6273 0.6493
vn -0.3209 0.6432 0.6952
vn -0.0892 0.6542 0.7510
vn 0.1490 0.6417 0.7524
vn 0.2658 0.6251 0.7339
# 161 vertex normals

vt 0.2138 0.0101 0.0000
vt 0.3594 0.0101 1.0000
vt 0.3012 0.0101 1.0000
vt 0.0681 0.0101 1.0000
vt 0.0099 0.0101 1.0000
vt 0.1264 0.0101 1.0000
vt 0.1847 0.0101 1.0000
vt 0.2429 0.0101 1.0000
vt 0.3594 0.3360 1.0000
vt 0.3012 0.3360 1.0000
vt 0.0681 0.3360 1.0000
vt 0.0099 0.3360 1.0000
vt 0.1264 0.3360 1.0000
vt 0.1847 0.3360 1.0000
vt 0.2429 0.3360 1.0000
vt 0.3594 0.6618 1.0000
vt 0.3012 0.6618 1.0000
vt 0.0681 0.6618 1.0000
vt 0.0099 0.6618 1.0000
vt 0.1264 0.6618 1.0000
vt 0.1847 0.6618 1.0000
vt 0.2429 0.6618 1.0000
vt 0.3594 0.9877 1.0000
vt 0.3012 0.9877 1.0000
vt 0.0681 0.9877 1.0000
vt 0.0099 0.9877 1.0000
vt 0.1264 0.9877 1.0000
vt 0.1847 0.9877 1.0000
vt 0.2429 0.9877 1.0000
vt 0.2138 0.9877 0.0000
vt 0.4322 0.5730 0.0000
vt 0.4322 0.4307 0.0000
vt 0.5745 0.5730 0.0000
vt 0.5745 0.4307 0.0000
vt 0.7153 0.5730 0.0000
vt 0.7153 0.4307 0.0000
vt 0.8577 0.5730 0.0000
vt 0.8577 0.4307 0.0000
vt 1.0000 0.5730 0.0000
vt 1.0000 0.4307 0.0000
vt 0.4307 0.7153 0.0000
vt 0.5730 0.7153 0.0000
vt 0.7153 0.7153 0.0000
vt 0.8577 0.7153 0.0000
vt 1.0000 0.7153 0.0000
vt 0.4307 0.8577 0.0000
vt 0.5730 0.8577 0.0000
vt 0.7153 0.8577 0.0000
vt 0.8577 0.8577 0.0000
vt 1.0000 0.8577 0.0000
vt 0.4307 1.0000 0.0000
vt 0.5730 1.0000 0.0000
vt 0.7153 1.0000 0.0000
vt 0.8577 1.0000 0.0000
vt 1.0000 1.0000 0.0000
# 55 texture coords

g Cylinder004
f 1/1/1 2/2/1 3/3/1 
f 1/1/1 4/4/1 2/5/1 
f 1/1/1 5/6/1 4/4/1 
f 1/1/1 6/7/1 5/6/1 
f 1/1/1 7/8/1 6/7/1 
f 1/1/1 3/3/1 7/8/1 
f 3/3/2 8/9/3 9/10/4 
f 3/3/2 2/2/5 8/9/3 
f 2/5/5 10/11/6 8/12/3 
f 2/5/5 4/4/7 10/11/6 
f 4/4/7 11/13/8 10/11/6 
f 4/4/7 5/6/9 11/13/8 
f 5/6/9 12/14/10 11/13/8 
f 5/6/9 6/7/11 12/14/10 
f 6/7/11 13/15/12 12/14/10 
f 6/7/11 7/8/13 13/15/12 
f 7/8/13 9/10/4 13/15/12 
f 7/8/13 3/3/2 9/10/4 
f 9/10/4 14/16/14 15/17/15 
f 9/10/4 8/9/3 14/16/14 
f 8/12/3 16/18/16 14/19/14 
f 8/12/3 10/11/6 16/18/16 
f 10/11/6 17/20/17 16/18/16 
f 10/11/6 11/13/8 17/20/17 
f 11/13/8 18/21/18 17/20/17 
f 11/13/8 12/14/10 18/21/18 
f 12/14/10 19/22/19 18/21/18 
f 12/14/10 13/15/12 19/22/19 
f 13/15/12 15/17/15 19/22/19 
f 13/15/12 9/10/4 15/17/15 
f 15/17/15 20/23/20 21/24/21 
f 15/17/15 14/16/14 20/23/20 
f 14/19/14 22/25/22 20/26/20 
f 14/19/14 16/18/16 22/25/22 
f 16/18/16 23/27/23 22/25/22 
f 16/18/16 17/20/17 23/27/23 
f 17/20/17 24/28/24 23/27/23 
f 17/20/17 18/21/18 24/28/24 
f 18/21/18 25/29/25 24/28/24 
f 18/21/18 19/22/19 25/29/25 
f 19/22/19 21/24/21 25/29/25 
f 19/22/19 15/17/15 21/24/21 
f 26/30/26 21/24/27 20/23/28 
f 26/30/26 20/26/28 22/25/29 
f 26/30/26 22/25/29 23/27/27 
f 26/30/26 23/27/27 24/28/28 
f 26/30/26 24/28/28 25/29/29 
f 26/30/26 25/29/29 21/24/27 
f 27/1/30 28/2/30 29/3/30 
f 27/1/30 30/4/31 28/5/30 
f 27/1/30 31/6/31 30/4/31 
f 27/1/30 32/7/30 31/6/31 
f 27/1/30 33/8/30 32/7/30 
f 27/1/30 29/3/30 33/8/30 
f 29/3/32 34/9/33 35/10/34 
f 29/3/32 28/2/35 34/9/33 
f 28/5/35 36/11/36 34/12/33 
f 28/5/35 30/4/37 36/11/36 
f 30/4/37 37/13/38 36/11/36 
f 30/4/37 31/6/39 37/13/38 
f 31/6/39 38/14/40 37/13/38 
f 31/6/39 32/7/41 38/14/40 
f 32/7/41 39/15/42 38/14/40 
f 32/7/41 33/8/43 39/15/42 
f 33/8/43 35/10/34 39/15/42 
f 33/8/43 29/3/32 35/10/34 
f 35/10/34 40/16/44 41/17/45 
f 35/10/34 34/9/33 40/16/44 
f 34/12/33 42/18/46 40/19/44 
f 34/12/33 36/11/36 42/18/46 
f 36/11/36 43/20/47 42/18/46 
f 36/11/36 37/13/38 43/20/47 
f 37/13/38 44/21/48 43/20/47 
f 37/13/38 38/14/40 44/21/48 
f 38/14/40 45/22/49 44/21/48 
f 38/14/40 39/15/42 45/22/49 
f 39/15/42 41/17/45 45/22/49 
f 39/15/42 35/10/34 41/17/45 
f 41/17/45 46/23/50 47/24/51 
f 41/17/45 40/16/44 46/23/50 
f 40/19/44 48/25/52 46/26/50 
f 40/19/44 42/18/46 48/25/52 
f 42/18/46 49/27/53 48/25/52 
f 42/18/46 43/20/47 49/27/53 
f 43/20/47 50/28/54 49/27/53 
f 43/20/47 44/21/48 50/28/54 
f 44/21/48 51/29/55 50/28/54 
f 44/21/48 45/22/49 51/29/55 
f 45/22/49 47/24/51 51/29/55 
f 45/22/49 41/17/45 47/24/51 
f 52/30/56 47/24/57 46/23/58 
f 52/30/56 46/26/58 48/25/59 
f 52/30/56 48/25/59 49/27/57 
f 52/30/56 49/27/57 50/28/58 
f 52/30/56 50/28/58 51/29/59 
f 52/30/56 51/29/59 47/24/57 
f 53/1/60 54/2/60 55/3/60 
f 53/1/60 56/4/60 54/5/60 
f 53/1/60 57/6/60 56/4/60 
f 53/1/60 58/7/60 57/6/60 
f 53/1/60 59/8/60 58/7/60 
f 53/1/60 55/3/60 59/8/60 
f 55/3/61 60/9/62 61/10/63 
f 55/3/61 54/2/64 60/9/62 
f 54/5/64 62/11/65 60/12/62 
f 54/5/64 56/4/66 62/11/65 
f 56/4/66 63/13/67 62/11/65 
f 56/4/66 57/6/68 63/13/67 
f 57/6/68 64/14/69 63/13/67 
f 57/6/68 58/7/70 64/14/69 
f 58/7/70 65/15/71 64/14/69 
f 58/7/70 59/8/72 65/15/71 
f 59/8/72 61/10/63 65/15/71 
f 59/8/72 55/3/61 61/10/63 
f 61/10/63 66/16/73 67/17/74 
f 61/10/63 60/9/62 66/16/73 
f 60/12/62 68/18/75 66/19/73 
f 60/12/62 62/11/65 68/18/75 
f 62/11/65 69/20/76 68/18/75 
f 62/11/65 63/13/67 69/20/76 
f 63/13/67 70/21/77 69/20/76 
f 63/13/67 64/14/69 70/21/77 
f 64/14/69 71/22/78 70/21/77 
f 64/14/69 65/15/71 71/22/78 
f 65/15/71 67/17/74 71/22/78 
f 65/15/71 61/10/63 67/17/74 
f 67/17/74 72/23/79 73/24/80 
f 67/17/74 66/16/73 72/23/79 
f 66/19/73 74/25/81 72/26/79 
f 66/19/73 68/18/75 74/25/81 
f 68/18/75 75/27/82 74/25/81 
f 68/18/75 69/20/76 75/27/82 
f 69/20/76 76/28/83 75/27/82 
f 69/20/76 70/21/77 76/28/83 
f 70/21/77 77/29/84 76/28/83 
f 70/21/77 71/22/78 77/29/84 
f 71/22/78 73/24/80 77/29/84 
f 71/22/78 67/17/74 73/24/80 
f 78/30/85 73/24/85 72/23/85 
f 78/30/85 72/26/85 74/25/85 
f 78/30/85 74/25/85 75/27/85 
f 78/30/85 75/27/85 76/28/86 
f 78/30/85 76/28/86 77/29/85 
f 78/30/85 77/29/85 73/24/85 
f 79/31/87 80/32/88 81/33/89 
f 82/34/90 81/33/89 80/32/88 
f 81/33/89 82/34/90 83/35/91 
f 84/36/92 83/35/91 82/34/90 
f 83/35/91 84/36/92 85/37/93 
f 86/38/94 85/37/93 84/36/92 
f 85/37/93 86/38/94 87/39/95 
f 88/40/96 87/39/95 86/38/94 
f 89/41/97 79/31/87 90/42/98 
f 81/33/89 90/42/98 79/31/87 
f 90/42/98 81/33/89 91/43/99 
f 83/35/91 91/43/99 81/33/89 
f 91/43/99 83/35/91 92/44/100 
f 85/37/93 92/44/100 83/35/91 
f 92/44/100 85/37/93 93/45/101 
f 87/39/95 93/45/101 85/37/93 
f 94/46/102 89/41/97 95/47/103 
f 90/42/98 95/47/103 89/41/97 
f 95/47/103 90/42/98 96/48/104 
f 91/43/99 96/48/104 90/42/98 
f 96/48/104 91/43/99 97/49/105 
f 92/44/100 97/49/105 91/43/99 
f 97/49/105 92/44/100 98/50/106 
f 93/45/101 98/50/106 92/44/100 
f 99/51/107 94/46/102 100/52/108 
f 95/47/103 100/52/108 94/46/102 
f 100/52/108 95/47/103 101/53/109 
f 96/48/104 101/53/109 95/47/103 
f 101/53/109 96/48/104 102/54/110 
f 97/49/105 102/54/110 96/48/104 
f 102/54/110 97/49/105 103/55/111 
f 98/50/106 103/55/111 97/49/105 
f 104/31/112 105/32/113 106/33/114 
f 107/34/115 106/33/114 105/32/113 
f 106/33/114 107/34/115 108/35/116 
f 109/36/117 108/35/116 107/34/115 
f 108/35/116 109/36/117 110/37/118 
f 111/38/119 110/37/118 109/36/117 
f 110/37/118 111/38/119 112/39/120 
f 113/40/121 112/39/120 111/38/119 
f 114/41/122 104/31/112 115/42/123 
f 106/33/114 115/42/123 104/31/112 
f 115/42/123 106/33/114 116/43/124 
f 108/35/116 116/43/124 106/33/114 
f 116/43/124 108/35/116 117/44/125 
f 110/37/118 117/44/125 108/35/116 
f 117/44/125 110/37/118 118/45/126 
f 112/39/120 118/45/126 110/37/118 
f 119/46/127 114/41/122 120/47/128 
f 115/42/123 120/47/128 114/41/122 
f 120/47/128 115/42/123 121/48/129 
f 116/43/124 121/48/129 115/42/123 
f 121/48/129 116/43/124 122/49/130 
f 117/44/125 122/49/130 116/43/124 
f 122/49/130 117/44/125 123/50/131 
f 118/45/126 123/50/131 117/44/125 
f 124/51/132 119/46/127 125/52/133 
f 120/47/128 125/52/133 119/46/127 
f 125/52/133 120/47/128 126/53/134 
f 121/48/129 126/53/134 120/47/128 
f 126/53/134 121/48/129 127/54/135 
f 122/49/130 127/54/135 121/48/129 
f 127/54/135 122/49/130 128/55/136 
f 123/50/131 128/55/136 122/49/130 
f 129/31/137 130/32/138 131/33/139 
f 132/34/140 131/33/139 130/32/138 
f 131/33/139 132/34/140 133/35/141 
f 134/36/142 133/35/141 132/34/140 
f 133/35/141 134/36/142 135/37/143 
f 136/38/144 135/37/143 134/36/142 
f 135/37/143 136/38/144 137/39/145 
f 138/40/146 137/39/145 136/38/144 
f 139/41/147 129/31/137 140/42/148 
f 131/33/139 140/42/148 129/31/137 
f 140/42/148 131/33/139 141/43/149 
f 133/35/141 141/43/149 131/33/139 
f 141/43/149 133/35/141 142/44/150 
f 135/37/143 142/44/150 133/35/141 
f 142/44/150 135/37/143 143/45/151 
f 137/39/145 143/45/151 135/37/143 
f 144/46/152 139/41/147 145/47/153 
f 140/42/148 145/47/153 139/41/147 
f 145/47/153 140/42/148 146/48/154 
f 141/43/149 146/48/154 140/42/148 
f 146/48/154 141/43/149 147/49/155 
f 142/44/150 147/49/155 141/43/149 
f 147/49/155 142/44/150 148/50/156 
f 143/45/151 148/50/156 142/44/150 
f 149/51/157 144/46/152 150/52/158 
f 145/47/153 150/52/158 144/46/152 
f 150/52/158 145/47/153 151/53/159 
f 146/48/154 151/53/159 145/47/153 
f 151/53/159 146/48/154 152/54/160 
f 147/49/155 152/54/160 146/48/154 
f 152/54/160 147/49/155 153/55/161 
f 148/50/156 153/55/161 147/49/155 
# 240 faces

