# 3ds Max Wavefront OBJ Exporter v0.97b - (c)2007 guruware
# File Created: 11.02.2015 17:16:45

#
# object default001
#

v  -10.2991 0.0477 -6.7868
v  -13.1536 0.0477 -6.7868
v  -13.1536 0.0477 5.9104
v  13.2279 0.0477 -6.7868
v  -10.2991 0.0477 5.9104
v  13.2279 0.0477 5.9104
v  -14.0906 0.0481 5.9014
v  13.2084 0.0481 5.9014
v  -14.0906 0.0481 6.3233
v  -14.0906 4.4062 5.9014
v  -14.0906 4.4062 6.3233
v  13.2084 4.4062 5.9014
v  13.2084 4.4062 6.3233
v  13.2084 0.0481 6.3233
v  13.2881 0.0481 0.3367
v  13.2881 0.0481 6.3031
v  12.3842 0.0481 0.3367
v  12.3842 1.9442 0.3367
v  12.3842 4.4062 6.3031
v  12.3842 1.9442 -1.0665
v  12.3842 0.0481 6.3031
v  13.2881 4.4062 6.3031
v  13.2881 4.4062 -7.0688
v  13.2881 1.9442 -1.0665
v  12.3842 4.4062 -7.0688
v  13.2881 0.0481 -7.0688
v  13.2881 0.0481 -1.0665
v  12.3842 0.0481 -7.0688
v  12.3842 0.0481 -1.0665
v  13.2881 1.9442 0.3367
v  7.3527 0.0481 -6.7858
v  7.3527 0.0481 -1.6753
v  7.0889 0.0481 -6.7858
v  7.3527 4.4062 -6.7858
v  7.0889 4.4062 -6.7858
v  7.3527 4.4062 -1.6753
v  7.0889 4.4062 -1.6753
v  7.0889 0.0481 -1.6753
v  -0.9249 0.0481 -0.7751
v  3.4212 0.0481 -0.7751
v  -0.9249 0.0481 -0.5553
v  -0.9249 4.4062 -0.7751
v  -0.9249 4.4062 -0.5553
v  3.4212 4.4062 -0.7751
v  3.4212 4.4062 -0.5553
v  3.4212 0.0481 -0.5553
v  -11.7652 4.4100 -7.5380
v  -14.9567 4.4100 -7.5380
v  -14.9567 4.4100 6.6584
v  -11.7652 4.4100 6.6584
v  14.5397 4.4100 6.6584
v  14.5397 4.4100 -7.5380
v  13.2463 0.0481 -6.7248
v  -14.1402 0.0481 -6.7248
v  13.2463 0.0481 -7.1467
v  13.2463 4.4062 -6.7248
v  13.2463 4.4062 -7.1467
v  -14.1402 4.4062 -6.7248
v  -14.1402 4.4062 -7.1467
v  -14.1402 0.0481 -7.1467
v  -14.1468 0.0481 6.2604
v  -14.1468 0.0481 -7.1114
v  -13.2429 0.0481 6.2604
v  -14.1468 4.4062 6.2604
v  -13.2429 4.4062 6.2604
v  -14.1468 4.4062 -7.1114
v  -13.2429 4.4062 -7.1115
v  -13.2429 0.0481 -7.1114
v  7.3527 0.0481 0.7657
v  7.3527 0.0481 5.8762
v  7.0889 0.0481 0.7657
v  7.3527 4.4062 0.7657
v  7.0889 4.4062 0.7657
v  7.3527 4.4062 5.8762
v  7.0889 4.4062 5.8762
v  7.0889 0.0481 5.8762
v  3.4912 0.0481 -0.5796
v  3.4912 0.0481 6.0492
v  3.2274 0.0481 -0.5796
v  3.4912 4.4062 -0.5796
v  3.2274 4.4062 -0.5796
v  3.4912 4.4062 6.0492
v  3.2274 4.4062 6.0492
v  3.2274 0.0481 6.0492
v  -0.6963 0.0481 -0.5796
v  -0.6963 0.0481 6.0492
v  -0.9601 0.0481 -0.5796
v  -0.6963 4.4062 -0.5796
v  -0.9601 4.4062 -0.5796
v  -0.6963 4.4062 6.0492
v  -0.9601 4.4062 6.0492
v  -0.9601 0.0481 6.0492
v  -7.7489 0.0481 -6.7333
v  -7.7489 0.0481 -1.5891
v  -8.0127 0.0481 -6.7333
v  -7.7489 4.4062 -6.7333
v  -8.0127 4.4062 -6.7333
v  -7.7489 4.4062 -1.5891
v  -8.0127 4.4062 -1.5891
v  -8.0127 0.0481 -1.5891
v  -0.7139 0.0481 -6.6782
v  -0.7139 0.0481 -3.7196
v  -0.9777 0.0481 -6.6782
v  -0.7139 4.4062 -6.6782
v  -0.9777 4.4062 -6.6782
v  -0.7139 4.4062 -3.7196
v  -0.9777 4.4062 -3.7196
v  -0.9777 0.0481 -3.7196
v  -0.9689 0.0481 -3.9046
v  3.3771 0.0481 -3.9046
v  -0.9689 0.0481 -3.6848
v  -0.9689 4.4062 -3.9046
v  -0.9689 4.4062 -3.6848
v  3.3771 4.4062 -3.9046
v  3.3771 4.4062 -3.6848
v  3.3771 0.0481 -3.6848
v  7.3647 0.0481 0.7768
v  11.7108 0.0481 0.7768
v  7.3647 0.0481 0.9966
v  7.3647 4.4062 0.7768
v  7.3647 4.4062 0.9966
v  11.7108 4.4062 0.7768
v  11.7108 4.4062 0.9966
v  11.7108 0.0481 0.9966
v  -13.1910 0.0481 0.7768
v  -8.8449 0.0481 0.7768
v  -13.1910 0.0481 0.9966
v  -13.1910 4.4062 0.7768
v  -13.1910 4.4062 0.9966
v  -8.8449 4.4062 0.7768
v  -8.8449 4.4062 0.9966
v  -8.8449 0.0481 0.9966
# 132 vertices

vn 0.0000 1.0000 -0.0000
vn -0.5774 -0.5773 -0.5773
vn 0.5774 -0.5774 -0.5774
vn -0.5773 -0.5774 0.5774
vn -0.5774 0.5773 -0.5773
vn -0.5773 0.5774 0.5774
vn 0.5773 0.5774 -0.5774
vn 0.5774 0.5773 0.5773
vn 0.5773 -0.5774 0.5774
vn 0.5774 -0.5774 0.5774
vn -0.5774 -0.5774 -0.5774
vn -0.9045 -0.3015 -0.3015
vn -0.5773 0.5773 0.5774
vn -0.9045 -0.3015 0.3015
vn -0.5774 -0.5774 0.5774
vn 0.5774 0.5774 0.5773
vn 0.5773 0.5773 -0.5774
vn 0.9045 -0.3015 0.3015
vn -0.5774 0.5774 -0.5773
vn 0.5773 -0.5774 -0.5774
vn -0.5774 -0.5774 -0.5773
vn 0.9045 -0.3015 -0.3015
vn 0.5774 0.5774 -0.5774
vn -0.5774 0.5774 -0.5774
vn 0.5774 -0.5773 0.5773
vn -0.5774 -0.5773 0.5774
vn -0.5773 -0.5774 -0.5774
vn 0.5774 -0.5774 0.5773
vn 0.5774 -0.5774 -0.5773
vn 0.5773 -0.5773 -0.5774
vn 0.5774 -0.5773 -0.5774
# 31 vertex normals

vt 0.7126 0.1762 0.0000
vt 0.3122 0.1762 0.0000
vt 0.3122 0.0003 0.0000
vt 1.1010 0.1787 0.0000
vt -0.1057 0.1778 0.0000
vt -0.1055 0.0013 0.0000
vt 0.7126 0.0003 0.0000
vt 1.1068 0.0022 0.0000
vt -0.3994 0.1835 0.0000
vt -0.3994 0.0546 0.0000
vt 1.3835 0.1835 0.0000
vt -0.2306 0.1715 0.0000
vt -0.2306 0.0301 0.0000
vt 1.2462 0.1715 0.0000
vt 0.4181 0.9956 0.0000
vt 0.4757 0.9956 0.0000
vt 0.4181 0.7870 0.0000
vt 1.3199 0.7706 0.0000
vt -0.2826 0.7706 0.0000
vt 1.3199 0.4600 0.0000
vt -0.1000 0.9990 0.0000
vt -0.1000 0.8266 0.0000
vt 1.1969 0.9990 0.0000
vt 1.3170 1.0021 0.0000
vt -0.2868 1.0021 0.0000
vt 1.3170 0.7833 0.0000
vt 1.3835 0.0546 0.0000
vt 1.2462 0.0301 0.0000
vt 0.4757 0.7870 0.0000
vt -0.2826 0.4600 0.0000
vt 1.1969 0.8266 0.0000
vt -0.2868 0.7833 0.0000
vt 0.3333 0.8154 0.0000
vt 0.3333 0.6667 0.0000
vt 0.0000 0.8154 0.0000
vt 0.4343 0.6512 0.0000
vt -0.0002 0.4726 0.0000
vt 0.5451 0.6509 0.0000
vt -0.0635 0.7902 0.0000
vt -0.0163 0.7826 0.0000
vt 1.0384 0.7893 0.0000
vt 0.0096 0.7893 0.0000
vt 0.5766 0.9063 0.0000
vt 1.0348 0.7845 0.0000
vt 1.0030 0.4741 0.0000
vt -0.0148 0.7845 0.0000
vt 0.3333 1.0000 0.0000
vt 0.3333 0.8504 0.0000
vt 0.0000 1.0000 0.0000
vt 0.3231 0.8056 0.0000
vt 0.6564 0.8056 0.0000
vt 0.3231 0.4722 0.0000
vt 0.0000 0.6667 0.0000
vt 1.0031 0.4741 0.0000
vt 0.5391 0.7877 0.0000
vt 1.0299 0.7857 0.0000
vt 0.4243 0.7882 0.0000
vt 0.9969 0.7857 0.0000
vt 0.4686 0.9964 0.0000
vt 0.4686 0.9063 0.0000
vt 0.0096 0.9964 0.0000
vt 0.5766 0.9964 0.0000
vt 1.0384 0.9964 0.0000
vt 0.0000 0.8504 0.0000
vt 0.6564 0.4722 0.0000
vt 0.0000 0.0000 0.0000
vt 0.7766 0.4290 0.0000
vt 0.7766 0.3850 0.0000
vt 0.8206 0.4290 0.0000
vt 0.5817 0.4552 0.0000
vt 0.5817 0.3935 0.0000
vt 0.6434 0.4552 0.0000
vt 0.2618 0.4439 0.0000
vt 0.2618 0.3881 0.0000
vt 0.3176 0.4439 0.0000
vt 0.3835 0.3690 0.0000
vt 0.3835 0.2684 0.0000
vt 0.6281 0.3690 0.0000
vt 0.5114 0.4061 0.0000
vt 0.5114 0.4463 0.0000
vt 0.4712 0.4061 0.0000
vt 0.3338 0.2635 0.0000
vt 0.0024 0.2635 0.0000
vt 0.3338 0.1785 0.0000
vt 0.8206 0.3850 0.0000
vt 0.6434 0.3935 0.0000
vt 0.3176 0.3881 0.0000
vt 0.6281 0.2684 0.0000
vt 0.4712 0.4463 0.0000
vt 0.0024 0.1785 0.0000
vt 0.8704 0.3795 0.0000
vt 0.8704 0.4427 0.0000
vt 0.8072 0.3795 0.0000
vt 0.2740 0.4387 0.0000
vt 0.2740 0.3798 0.0000
vt 0.3329 0.4387 0.0000
vt 0.1556 0.4600 0.0000
vt 0.1556 0.3722 0.0000
vt 0.2434 0.4600 0.0000
vt 0.6657 0.4764 0.0000
vt 0.4438 0.4764 0.0000
vt 0.6657 0.3676 0.0000
vt 0.8086 0.3764 0.0000
vt 0.8881 0.3764 0.0000
vt 0.8086 0.4558 0.0000
vt 0.3540 0.7791 0.0000
vt 0.3540 0.4753 0.0000
vt 0.6578 0.7791 0.0000
vt 0.8072 0.4427 0.0000
vt 0.3329 0.3798 0.0000
vt 0.2434 0.3722 0.0000
vt 0.4438 0.3676 0.0000
vt 0.8881 0.4558 0.0000
vt 0.6578 0.4753 0.0000
vt 0.5450 0.2543 0.0000
vt 0.4826 0.2543 0.0000
vt 0.4826 0.1919 0.0000
vt 0.3145 0.2620 0.0000
vt 0.3145 0.1833 0.0000
vt 0.9268 0.1833 0.0000
vt 0.5450 0.1919 0.0000
vt 0.9268 0.2620 0.0000
vt -0.4081 0.1546 0.0000
vt -0.4081 0.0256 0.0000
vt 1.3748 0.1546 0.0000
vt -0.2436 0.1686 0.0000
vt -0.2436 0.0272 0.0000
vt 1.2332 0.1686 0.0000
vt -0.2475 0.0570 0.0000
vt -0.2475 0.1274 0.0000
vt 1.3527 0.0570 0.0000
vt 1.3748 0.0256 0.0000
vt 1.2332 0.0272 0.0000
vt 1.3527 0.1274 0.0000
# 134 texture coords

g default001
f 1/1/1 2/2/1 3/3/1 
f 4/4/1 1/5/1 5/6/1 
f 5/7/1 1/1/1 3/3/1 
f 6/8/1 4/4/1 5/6/1 
f 7/9/2 8/10/3 9/11/4 
f 10/12/5 11/13/6 12/14/7 
f 12/15/7 13/16/8 8/17/3 
f 10/18/5 12/19/7 7/20/2 
f 11/21/6 10/22/5 9/23/4 
f 9/24/4 14/25/9 11/26/6 
f 8/10/3 14/27/9 9/11/4 
f 11/13/6 13/28/8 12/14/7 
f 13/16/8 14/29/9 8/17/3 
f 12/19/7 8/30/3 7/20/2 
f 10/22/5 7/31/2 9/23/4 
f 14/25/9 13/32/8 11/26/6 
f 15/33/3 16/34/10 17/35/11 
f 18/36/12 19/37/13 20/38/14 
f 19/37/13 21/39/15 22/40/16 
f 23/41/17 22/42/16 24/43/18 
f 23/44/17 25/45/19 22/46/16 
f 26/47/20 27/48/10 28/49/21 
f 23/50/17 26/51/20 25/52/19 
f 16/34/10 21/53/15 17/35/11 
f 25/54/19 20/38/14 19/37/13 
f 29/55/15 20/38/14 28/56/21 
f 17/57/11 21/39/15 18/36/12 
f 28/56/21 20/38/14 25/54/19 
f 21/39/15 19/37/13 18/36/12 
f 21/39/15 16/58/10 22/40/16 
f 15/59/3 30/60/22 16/61/10 
f 27/62/10 26/63/20 24/43/18 
f 16/61/10 30/60/22 22/42/16 
f 26/63/20 23/41/17 24/43/18 
f 30/60/22 24/43/18 22/42/16 
f 25/45/19 19/37/13 22/46/16 
f 27/48/10 29/64/15 28/49/21 
f 26/51/20 28/65/21 25/52/19 
f 17/66/11 18/66/12 15/66/3 
f 30/66/22 18/66/12 24/66/18 
f 27/66/10 24/66/18 29/66/15 
f 18/66/12 30/66/22 15/66/3 
f 18/66/12 20/66/14 24/66/18 
f 24/66/18 20/66/14 29/66/15 
f 31/67/20 32/68/10 33/69/21 
f 34/70/23 35/71/24 36/72/16 
f 36/73/16 37/74/13 32/75/10 
f 34/76/23 36/77/16 31/78/20 
f 35/79/24 34/80/23 33/81/21 
f 33/82/21 38/83/15 35/84/24 
f 32/68/10 38/85/15 33/69/21 
f 35/71/24 37/86/13 36/72/16 
f 37/74/13 38/87/15 32/75/10 
f 36/77/16 32/88/10 31/78/20 
f 34/80/23 31/89/20 33/81/21 
f 38/83/15 37/90/13 35/84/24 
f 39/91/21 40/92/20 41/93/4 
f 42/94/19 43/95/6 44/96/7 
f 44/97/7 45/98/8 40/99/20 
f 42/100/19 44/101/7 39/102/21 
f 42/103/19 39/104/21 43/105/6 
f 41/106/4 46/107/10 43/108/6 
f 40/92/20 46/109/10 41/93/4 
f 43/95/6 45/110/8 44/96/7 
f 45/98/8 46/111/10 40/99/20 
f 44/101/7 40/112/20 39/102/21 
f 39/104/21 41/113/4 43/105/6 
f 46/107/10 45/114/8 43/108/6 
f 47/115/1 48/116/1 49/117/1 
f 47/118/1 50/119/1 51/120/1 
f 50/121/1 47/115/1 49/117/1 
f 52/122/1 47/118/1 51/120/1 
f 53/123/25 54/124/26 55/125/20 
f 56/126/8 57/127/7 58/128/6 
f 58/129/6 59/130/5 54/131/26 
f 56/18/8 58/19/6 53/20/25 
f 57/21/7 56/22/8 55/23/20 
f 55/24/20 60/25/27 57/26/7 
f 54/124/26 60/132/27 55/125/20 
f 57/127/7 59/133/5 58/128/6 
f 59/130/5 60/134/27 54/131/26 
f 58/19/6 54/30/26 53/20/25 
f 56/22/8 53/31/25 55/23/20 
f 60/25/27 59/32/5 57/26/7 
f 61/47/4 62/34/11 63/49/28 
f 64/44/13 65/54/16 66/46/19 
f 66/40/19 67/37/17 62/58/11 
f 64/41/13 66/42/19 61/63/4 
f 65/52/16 64/50/13 63/65/28 
f 63/56/28 68/39/29 65/54/16 
f 62/34/11 68/53/29 63/49/28 
f 65/54/16 67/37/17 66/46/19 
f 67/37/17 68/39/29 62/58/11 
f 66/42/19 62/61/11 61/63/4 
f 64/50/13 61/51/4 63/65/28 
f 68/39/29 67/37/17 65/54/16 
f 69/67/20 70/68/10 71/69/21 
f 72/70/7 73/71/19 74/72/16 
f 74/73/16 75/74/13 70/75/10 
f 72/76/7 74/77/16 69/78/20 
f 73/79/19 72/80/7 71/81/21 
f 71/82/21 76/83/15 73/84/19 
f 70/68/10 76/85/15 71/69/21 
f 73/71/19 75/86/13 74/72/16 
f 75/74/13 76/87/15 70/75/10 
f 74/77/16 70/88/10 69/78/20 
f 72/80/7 69/89/20 71/81/21 
f 76/83/15 75/90/13 73/84/19 
f 77/67/30 78/68/9 79/69/21 
f 80/70/17 81/71/19 82/72/16 
f 82/73/16 83/74/13 78/75/9 
f 80/76/17 82/77/16 77/78/30 
f 81/79/19 80/80/17 79/81/21 
f 79/82/21 84/83/15 81/84/19 
f 78/68/9 84/85/15 79/69/21 
f 81/71/19 83/86/13 82/72/16 
f 83/74/13 84/87/15 78/75/9 
f 82/77/16 78/88/9 77/78/30 
f 80/80/17 77/89/30 79/81/21 
f 84/83/15 83/90/13 81/84/19 
f 85/67/30 86/68/10 87/69/21 
f 88/70/17 89/71/19 90/72/16 
f 90/73/16 91/74/13 86/75/10 
f 88/76/17 90/77/16 85/78/30 
f 89/79/19 88/80/17 87/81/21 
f 87/82/21 92/83/15 89/84/19 
f 86/68/10 92/85/15 87/69/21 
f 89/71/19 91/86/13 90/72/16 
f 91/74/13 92/87/15 86/75/10 
f 90/77/16 86/88/10 85/78/30 
f 88/80/17 85/89/30 87/81/21 
f 92/83/15 91/90/13 89/84/19 
f 93/67/30 94/68/10 95/69/21 
f 96/70/7 97/71/19 98/72/16 
f 98/73/16 99/74/13 94/75/10 
f 96/76/7 98/77/16 93/78/30 
f 97/79/19 96/80/7 95/81/21 
f 95/82/21 100/83/15 97/84/19 
f 94/68/10 100/85/15 95/69/21 
f 97/71/19 99/86/13 98/72/16 
f 99/74/13 100/87/15 94/75/10 
f 98/77/16 94/88/10 93/78/30 
f 96/80/7 93/89/30 95/81/21 
f 100/83/15 99/90/13 97/84/19 
f 101/67/3 102/68/10 103/69/11 
f 104/70/7 105/71/19 106/72/16 
f 106/73/16 107/74/6 102/75/10 
f 104/76/7 106/77/16 101/78/3 
f 105/79/19 104/80/7 103/81/11 
f 103/82/11 108/83/15 105/84/19 
f 102/68/10 108/85/15 103/69/11 
f 105/71/19 107/86/6 106/72/16 
f 107/74/6 108/87/15 102/75/10 
f 106/77/16 102/88/10 101/78/3 
f 104/80/7 101/89/3 103/81/11 
f 108/83/15 107/90/6 105/84/19 
f 109/91/21 110/92/31 111/93/4 
f 112/94/19 113/95/6 114/96/7 
f 114/97/7 115/98/8 110/99/31 
f 112/100/19 114/101/7 109/102/21 
f 112/103/19 109/104/21 113/105/6 
f 111/106/4 116/107/10 113/108/6 
f 110/92/31 116/109/10 111/93/4 
f 113/95/6 115/110/8 114/96/7 
f 115/98/8 116/111/10 110/99/31 
f 114/101/7 110/112/31 109/102/21 
f 109/104/21 111/113/4 113/105/6 
f 116/107/10 115/114/8 113/108/6 
f 117/91/2 118/92/31 119/93/4 
f 120/94/19 121/95/6 122/96/7 
f 122/97/7 123/98/8 118/99/31 
f 120/100/19 122/101/7 117/102/2 
f 121/105/6 120/103/19 119/113/4 
f 119/106/4 124/107/10 121/108/6 
f 118/92/31 124/109/10 119/93/4 
f 121/95/6 123/110/8 122/96/7 
f 123/98/8 124/111/10 118/99/31 
f 122/101/7 118/112/31 117/102/2 
f 120/103/19 117/104/2 119/113/4 
f 124/107/10 123/114/8 121/108/6 
f 125/91/21 126/92/31 127/93/4 
f 128/94/19 129/95/6 130/96/7 
f 131/98/8 132/111/10 130/97/7 
f 128/100/19 130/101/7 125/102/21 
f 129/105/6 128/103/19 127/113/4 
f 127/106/4 132/107/10 129/108/6 
f 126/92/31 132/109/10 127/93/4 
f 129/95/6 131/110/8 130/96/7 
f 132/111/10 126/99/31 130/97/7 
f 130/101/7 126/112/31 125/102/21 
f 128/103/19 125/104/21 127/113/4 
f 132/107/10 131/114/8 129/108/6 
# 192 faces

