# Blender v2.73 (sub 0) OBJ File: 'robot.blend'
# www.blender.org
o Cube.006
v -2.074378 1.343693 0.260831
v -2.074378 1.343693 -0.594386
v -1.219160 1.343692 -0.594386
v -1.219160 1.343692 0.260831
v -2.074378 0.488475 0.260831
v -2.074378 0.488475 -0.594386
v -1.219160 0.488475 -0.594386
v -1.219160 0.488475 0.260831
v -1.779549 -2.425184 -0.759417
v -1.779549 -2.425184 0.460583
v -2.979549 -2.425184 0.460583
v -2.979549 -2.425184 -0.759417
v -1.779549 1.854815 -0.759417
v -1.779549 1.854815 0.460583
v -2.979549 1.854815 0.460583
v -2.979549 1.854815 -0.759417
v -2.703732 -3.015226 -0.260985
v -2.703732 -3.015226 -0.037849
v -2.923211 -3.015226 -0.037849
v -2.923211 -3.015226 -0.260985
v -2.703732 -2.232418 -0.260985
v -2.703732 -2.232418 -0.037849
v -2.923211 -2.232418 -0.037849
v -2.923211 -2.232418 -0.260985
v -2.396801 -3.015226 -0.260985
v -2.396801 -3.015226 -0.037849
v -2.616280 -3.015226 -0.037849
v -2.616280 -3.015226 -0.260985
v -2.396801 -2.232418 -0.260985
v -2.396801 -2.232418 -0.037849
v -2.616280 -2.232418 -0.037849
v -2.616280 -2.232418 -0.260985
v -2.089344 -3.015226 -0.260985
v -2.089344 -3.015226 -0.037849
v -2.308823 -3.015226 -0.037849
v -2.308823 -3.015226 -0.260985
v -2.089344 -2.232418 -0.260985
v -2.089344 -2.232418 -0.037849
v -2.308823 -2.232418 -0.037849
v -2.308823 -2.232418 -0.260985
v -1.782413 -3.015226 -0.260985
v -1.782413 -3.015226 -0.037849
v -2.001891 -3.015226 -0.037849
v -2.001891 -3.015226 -0.260985
v -1.782413 -2.232418 -0.260985
v -1.782413 -2.232418 -0.037849
v -2.001891 -2.232418 -0.037849
v -2.001891 -2.232418 -0.260985
v -2.967154 -1.918628 -0.260985
v -2.967154 -1.918628 -0.037849
v -2.771885 -2.018834 -0.037849
v -2.771885 -2.018834 -0.260985
v -3.324553 -2.615087 -0.260985
v -3.324553 -2.615087 -0.037849
v -3.129284 -2.715292 -0.037849
v -3.129284 -2.715292 -0.260985
vt 1.000000 0.000000
vt 1.000000 1.000000
vt 0.000000 1.000000
vt 0.000000 0.000000
vn 1.000000 0.000000 0.000000
vn 0.000000 0.000000 1.000000
vn -1.000000 0.000000 0.000000
vn -0.000000 0.000000 -1.000000
vn -0.000000 -1.000000 0.000000
vn 0.000000 1.000000 0.000000
vn -0.889700 0.456600 0.000000
vn 0.889700 -0.456600 0.000000
vn 0.456600 0.889700 0.000000
vn -0.456600 -0.889700 0.000000
s off
f 6/1/1 2/2/1 1/3/1
f 6/4/2 7/1/2 3/2/2
f 8/1/3 4/2/3 3/3/3
f 5/1/4 1/2/4 4/3/4
f 2/1/5 3/2/5 4/3/5
f 7/1/6 6/2/6 5/3/6
f 13/4/1 14/1/1 10/2/1
f 15/1/2 11/2/2 10/3/2
f 15/4/3 16/1/3 12/2/3
f 13/1/4 9/2/4 12/3/4
f 10/1/5 11/2/5 12/3/5
f 15/1/6 14/2/6 13/3/6
f 22/1/1 18/2/1 17/3/1
f 23/1/2 19/2/2 18/3/2
f 24/1/3 20/2/3 19/3/3
f 21/1/4 17/2/4 20/3/4
f 18/1/5 19/2/5 20/3/5
f 23/1/6 22/2/6 21/3/6
f 30/1/1 26/2/1 25/3/1
f 31/1/2 27/2/2 26/3/2
f 32/1/3 28/2/3 27/3/3
f 29/1/4 25/2/4 28/3/4
f 26/1/5 27/2/5 28/3/5
f 31/1/6 30/2/6 29/3/6
f 38/1/1 34/2/1 33/3/1
f 39/1/2 35/2/2 34/3/2
f 40/1/3 36/2/3 35/3/3
f 37/1/4 33/2/4 36/3/4
f 34/1/5 35/2/5 36/3/5
f 39/1/6 38/2/6 37/3/6
f 46/1/1 42/2/1 41/3/1
f 47/1/2 43/2/2 42/3/2
f 48/1/3 44/2/3 43/3/3
f 45/1/4 41/2/4 44/3/4
f 42/1/5 43/2/5 44/3/5
f 47/1/6 46/2/6 45/3/6
f 53/4/7 54/1/7 50/2/7
f 55/1/2 51/2/2 50/3/2
f 55/4/8 56/1/8 52/2/8
f 53/1/4 49/2/4 52/3/4
f 50/1/9 51/2/9 52/3/9
f 55/1/10 54/2/10 53/3/10
f 5/4/1 6/1/1 1/3/1
f 2/3/2 6/4/2 3/2/2
f 7/4/3 8/1/3 3/3/3
f 8/4/4 5/1/4 4/3/4
f 1/4/5 2/1/5 4/3/5
f 8/4/6 7/1/6 5/3/6
f 9/3/1 13/4/1 10/2/1
f 14/4/2 15/1/2 10/3/2
f 11/3/3 15/4/3 12/2/3
f 16/4/4 13/1/4 12/3/4
f 9/4/5 10/1/5 12/3/5
f 16/4/6 15/1/6 13/3/6
f 21/4/1 22/1/1 17/3/1
f 22/4/2 23/1/2 18/3/2
f 23/4/3 24/1/3 19/3/3
f 24/4/4 21/1/4 20/3/4
f 17/4/5 18/1/5 20/3/5
f 24/4/6 23/1/6 21/3/6
f 29/4/1 30/1/1 25/3/1
f 30/4/2 31/1/2 26/3/2
f 31/4/3 32/1/3 27/3/3
f 32/4/4 29/1/4 28/3/4
f 25/4/5 26/1/5 28/3/5
f 32/4/6 31/1/6 29/3/6
f 37/4/1 38/1/1 33/3/1
f 38/4/2 39/1/2 34/3/2
f 39/4/3 40/1/3 35/3/3
f 40/4/4 37/1/4 36/3/4
f 33/4/5 34/1/5 36/3/5
f 40/4/6 39/1/6 37/3/6
f 45/4/1 46/1/1 41/3/1
f 46/4/2 47/1/2 42/3/2
f 47/4/3 48/1/3 43/3/3
f 48/4/4 45/1/4 44/3/4
f 41/4/5 42/1/5 44/3/5
f 48/4/6 47/1/6 45/3/6
f 49/3/7 53/4/7 50/2/7
f 54/4/2 55/1/2 50/3/2
f 51/3/8 55/4/8 52/2/8
f 56/4/4 53/1/4 52/3/4
f 49/4/9 50/1/9 52/3/9
f 56/4/10 55/1/10 53/3/10
