# 3ds Max Wavefront OBJ Exporter v0.97b - (c)2007 guruware
# File Created: 25.03.2015 14:55:24

mtllib platform_ice.mtl

#
# object Box001
#

v  -4.9958 -4.9523 4.9712
v  -4.9958 -4.9523 -5.0288
v  5.0042 -4.9523 -5.0288
v  5.0042 -4.9523 4.9712
v  -4.9958 5.0477 4.9712
v  5.0042 5.0477 4.9712
v  5.0042 5.0477 -5.0288
v  -4.9958 5.0477 -5.0288
# 8 vertices

vn 0.0000 -1.0000 -0.0000
vn 0.0000 1.0000 -0.0000
vn 0.0000 0.0000 1.0000
vn 1.0000 0.0000 -0.0000
vn 0.0000 0.0000 -1.0000
vn -1.0000 0.0000 -0.0000
# 6 vertex normals

vt 0.0034 0.0034 0.0000
vt 0.0034 0.5069 0.0000
vt 0.5069 0.5069 0.0000
vt 0.5069 0.0034 0.0000
vt 0.5127 0.5094 0.0000
vt 0.9996 0.5094 0.0000
vt 0.9996 0.9963 0.0000
vt 0.5127 0.9963 0.0000
vt 0.5231 0.0014 0.0000
vt 0.9944 0.0014 0.0000
vt 0.9944 0.4727 0.0000
vt 0.5231 0.4727 0.0000
vt 0.5246 -0.0001 0.0000
vt 0.9959 -0.0001 0.0000
vt 0.9959 0.4712 0.0000
vt 0.5246 0.4712 0.0000
vt 0.5246 0.0054 0.0000
vt 0.9959 0.0054 0.0000
vt 0.9959 0.4766 0.0000
vt 0.5246 0.4766 0.0000
vt 0.5222 -0.0001 0.0000
vt 0.9935 -0.0001 0.0000
vt 0.9935 0.4712 0.0000
vt 0.5222 0.4712 0.0000
# 24 texture coords

g Box001
usemtl wire_229154215
s 2
f 1/1/1 2/2/1 3/3/1 
f 3/3/1 4/4/1 1/1/1 
s 4
f 5/5/2 6/6/2 7/7/2 
f 7/7/2 8/8/2 5/5/2 
s 8
f 1/9/3 4/10/3 6/11/3 
f 6/11/3 5/12/3 1/9/3 
s 16
f 4/13/4 3/14/4 7/15/4 
f 7/15/4 6/16/4 4/13/4 
s 32
f 3/17/5 2/18/5 8/19/5 
f 8/19/5 7/20/5 3/17/5 
s 64
f 2/21/6 1/22/6 5/23/6 
f 5/23/6 8/24/6 2/21/6 
# 12 faces

